solid poele-connecteur-servo
facet normal -3.1269789625027087e-17 -1.0 -3.1487512952954844e-34
  outer loop
    vertex 10.000000000000002 -1.0000000000000002 13.000000000000002
    vertex 0.0 -0.9999999999999999 1.9999999999999998
    vertex 10.000000000000002 -1.0000000000000002 1.9999999999999998
  endloop
endfacet
facet normal -3.1269789625027087e-17 -1.0 -3.1487512952954844e-34
  outer loop
    vertex 0.0 -0.9999999999999999 1.9999999999999998
    vertex 10.000000000000002 -1.0000000000000002 13.000000000000002
    vertex 0.0 -0.9999999999999999 13.000000000000002
  endloop
endfacet
facet normal -0.0 1.0 -0.0
  outer loop
    vertex 0.0 7.999999999999999 13.000000000000002
    vertex 9.999999999999998 7.999999999999999 1.9999999999999998
    vertex 0.0 7.999999999999999 1.9999999999999998
  endloop
endfacet
facet normal -0.0 1.0 -0.0
  outer loop
    vertex 9.999999999999998 7.999999999999999 1.9999999999999998
    vertex 0.0 7.999999999999999 13.000000000000002
    vertex 9.999999999999998 7.999999999999999 13.000000000000002
  endloop
endfacet
facet normal -4.0305809267870254e-07 -0.999999999999919 -5.908779696486105e-09
  outer loop
    vertex 8.999999364850062 2.999999999999999 13.000000000000002
    vertex 5.000000000000003 3.0000020195517654 1.9999999999999998
    vertex 7.807692307692307 2.9999985910103946 1.9999999999999998
  endloop
endfacet
facet normal -4.0305809267870254e-07 -0.999999999999919 -5.908779696486105e-09
  outer loop
    vertex 5.000000000000003 3.0000020195517654 1.9999999999999998
    vertex 8.999999364850062 2.999999999999999 13.000000000000002
    vertex 4.999999999999999 2.999999999999999 13.000000000000002
  endloop
endfacet
facet normal 4.035698370758301e-07 -0.9999999999999187 -5.422028691771312e-09
  outer loop
    vertex 4.999999999999999 2.999999999999999 13.000000000000002
    vertex 2.187853123772304 2.9999985815392027 2.0000903983527794
    vertex 5.000000000000003 3.0000020195517654 1.9999999999999998
  endloop
endfacet
facet normal 4.035698370758301e-07 -0.9999999999999187 -5.422028691771312e-09
  outer loop
    vertex 2.187853123772304 2.9999985815392027 2.0000903983527794
    vertex 4.999999999999999 2.999999999999999 13.000000000000002
    vertex 0.9939438870687425 2.999999999999999 13.000000000000002
  endloop
endfacet
facet normal 0.9941612933945517 -4.063537603606289e-06 0.10790422929412836
  outer loop
    vertex 1.161624841780258 0.9993252392781466 11.45502968580934
    vertex 0.9939438870687425 2.999999999999999 13.000000000000002
    vertex 0.9939438788777939 0.9984884109220488 12.999936004105347
  endloop
endfacet
facet normal 0.9941612933945517 -4.063537603606289e-06 0.10790422929412836
  outer loop
    vertex 0.9939438870687425 2.999999999999999 13.000000000000002
    vertex 1.161624841780258 0.9993252392781466 11.45502968580934
    vertex 2.1878531081203136 1.000002579295381 1.9999999999999991
  endloop
endfacet
facet normal 0.9941612933945517 -4.063537603606289e-06 0.10790422929412836
  outer loop
    vertex 0.9939438870687425 2.999999999999999 13.000000000000002
    vertex 2.1878531081203136 1.000002579295381 1.9999999999999991
    vertex 2.187853123772304 2.9999985815392027 2.0000903983527794
  endloop
endfacet
facet normal 1.0 3.3748941133242304e-16 4.348911660939374e-17
  outer loop
    vertex 10.000000000000002 -0.6121074393753335 1.9999999999999998
    vertex 10.000000000000002 -1.0000000000000002 13.000000000000002
    vertex 10.000000000000002 -1.0000000000000002 1.9999999999999998
  endloop
endfacet
facet normal 1.0 3.3748941133242304e-16 4.348911660939374e-17
  outer loop
    vertex 10.000000000000002 -1.0000000000000002 13.000000000000002
    vertex 10.000000000000002 -0.6121074393753335 1.9999999999999998
    vertex 9.999999999999998 2.999999999999999 13.000000000000002
  endloop
endfacet
facet normal 1.0 3.3748941133242304e-16 4.348911660939374e-17
  outer loop
    vertex 9.999999999999998 2.999999999999999 13.000000000000002
    vertex 10.000000000000002 -0.6121074393753335 1.9999999999999998
    vertex 10.000000000000002 0.08333473045166429 1.9999999999999998
  endloop
endfacet
facet normal 1.0 3.3748941133242304e-16 4.348911660939374e-17
  outer loop
    vertex 9.999999999999998 2.999999999999999 13.000000000000002
    vertex 10.000000000000002 0.08333473045166429 1.9999999999999998
    vertex 10.0 4.208334730451667 1.9999999999999998
  endloop
endfacet
facet normal 1.0 3.3748941133242304e-16 4.348911660939374e-17
  outer loop
    vertex 9.999999999999998 2.999999999999999 13.000000000000002
    vertex 10.0 4.208334730451667 1.9999999999999998
    vertex 9.999999999999998 7.999999999999999 13.000000000000002
  endloop
endfacet
facet normal 1.0 3.3748941133242304e-16 4.348911660939374e-17
  outer loop
    vertex 9.999999999999998 7.999999999999999 13.000000000000002
    vertex 10.0 4.208334730451667 1.9999999999999998
    vertex 9.999999999999998 5.291665572742794 1.9999999999999998
  endloop
endfacet
facet normal 1.0 3.3748941133242304e-16 4.348911660939374e-17
  outer loop
    vertex 9.999999999999998 7.999999999999999 13.000000000000002
    vertex 9.999999999999998 5.291665572742794 1.9999999999999998
    vertex 9.999999999999998 7.999999999999999 1.9999999999999998
  endloop
endfacet
facet normal 0.0 0.0 -1.0
  outer loop
    vertex 10.000000000000002 0.08333473045166429 1.9999999999999998
    vertex 8.307692307692307 1.000002579295381 1.9999999999999998
    vertex 10.0 4.208334730451667 1.9999999999999998
  endloop
endfacet
facet normal -6.7939858399258536e-18 -3.3390602045447663e-16 -1.0
  outer loop
    vertex 1.762479051592436e-16 0.08464337038782109 1.9999999999999998
    vertex 10.000000000000002 -1.0000000000000002 1.9999999999999998
    vertex 0.0 -0.9999999999999999 1.9999999999999998
  endloop
endfacet
facet normal -6.7939858399258536e-18 -3.3390602045447663e-16 -1.0
  outer loop
    vertex 10.000000000000002 -1.0000000000000002 1.9999999999999998
    vertex 1.762479051592436e-16 0.08464337038782109 1.9999999999999998
    vertex 1.6878528627898577 1.000002579295381 1.9999999999999991
  endloop
endfacet
facet normal -6.7939858399258536e-18 -3.3390602045447663e-16 -1.0
  outer loop
    vertex 10.000000000000002 -1.0000000000000002 1.9999999999999998
    vertex 1.6878528627898577 1.000002579295381 1.9999999999999991
    vertex 10.000000000000002 -0.6121074393753335 1.9999999999999998
  endloop
endfacet
facet normal -0.9942039298687629 0.0014440204235261558 0.10750097970960243
  outer loop
    vertex 8.999999364850062 2.999999999999999 13.000000000000002
    vertex 7.87026904522956 0.999643920792307 2.578757829868546
    vertex 8.996950095740619 0.9863705118059782 12.998847689107315
  endloop
endfacet
facet normal -0.9942039298687629 0.0014440204235261558 0.10750097970960243
  outer loop
    vertex 7.87026904522956 0.999643920792307 2.578757829868546
    vertex 8.999999364850062 2.999999999999999 13.000000000000002
    vertex 7.80768986544853 1.000002579295381 1.9999999999999998
  endloop
endfacet
facet normal -0.9941768964755348 1.2140135899940114e-06 0.10776037542993323
  outer loop
    vertex 8.999999364850062 2.999999999999999 13.000000000000002
    vertex 7.807692307692307 2.9999985910103946 1.9999999999999998
    vertex 7.80768986544853 1.000002579295381 1.9999999999999998
  endloop
endfacet
facet normal 3.137386653774604e-17 0.9999999974339939 7.163806333818854e-05
  outer loop
    vertex 1.161624841780258 0.9993252392781466 11.45502968580934
    vertex 7.80768986544853 1.000002579295381 1.9999999999999998
    vertex 2.1878531081203136 1.000002579295381 1.9999999999999991
  endloop
endfacet
facet normal 0.0006757567242086883 0.9999996222707056 0.0005466363472567731
  outer loop
    vertex 1.161624841780258 0.9993252392781466 11.45502968580934
    vertex 7.87026904522956 0.999643920792307 2.578757829868546
    vertex 7.80768986544853 1.000002579295381 1.9999999999999998
  endloop
endfacet
facet normal 0.0014329132132628738 0.9999983474193036 0.001118891587696054
  outer loop
    vertex 8.996950095740619 0.9863705118059782 12.998847689107315
    vertex 7.87026904522956 0.999643920792307 2.578757829868546
    vertex 1.161624841780258 0.9993252392781466 11.45502968580934
  endloop
endfacet
facet normal 0.0015142622972306819 0.9999986042692904 0.0007060234884665467
  outer loop
    vertex 0.9939438788777939 0.9984884109220488 12.999936004105347
    vertex 8.996950095740619 0.9863705118059782 12.998847689107315
    vertex 1.161624841780258 0.9993252392781466 11.45502968580934
  endloop
endfacet
facet normal -0.0 -0.0 1.0
  outer loop
    vertex 8.999999364850062 2.999999999999999 13.000000000000002
    vertex 5.388228044955325 3.0511132113036052 13.000000000000002
    vertex 4.999999999999999 2.999999999999999 13.000000000000002
  endloop
endfacet
facet normal -0.0 -0.0 1.0
  outer loop
    vertex 5.388228044955325 3.0511132113036052 13.000000000000002
    vertex 8.999999364850062 2.999999999999999 13.000000000000002
    vertex 5.517638090226741 3.0681483482121963 13.000000000000002
  endloop
endfacet
facet normal -0.0 -0.0 1.0
  outer loop
    vertex 5.517638090226741 3.0681483482121963 13.000000000000002
    vertex 8.999999364850062 2.999999999999999 13.000000000000002
    vertex 6.000000000085311 3.2679491930678815 13.000000000000002
  endloop
endfacet
facet normal -0.0 -0.0 1.0
  outer loop
    vertex 6.000000000085311 3.2679491930678815 13.000000000000002
    vertex 8.999999364850062 2.999999999999999 13.000000000000002
    vertex 6.414213562559599 3.585786438131786 13.000000000000002
  endloop
endfacet
facet normal -0.0 -0.0 1.0
  outer loop
    vertex 6.414213562559599 3.585786438131786 13.000000000000002
    vertex 8.999999364850062 2.999999999999999 13.000000000000002
    vertex 6.732050807887258 4.000000000403689 13.000000000000002
  endloop
endfacet
facet normal -0.0 -0.0 1.0
  outer loop
    vertex 6.732050807887258 4.000000000403689 13.000000000000002
    vertex 8.999999364850062 2.999999999999999 13.000000000000002
    vertex 6.931851653050091 4.482361910135035 13.000000000000002
  endloop
endfacet
facet normal -0.0 -0.0 1.0
  outer loop
    vertex 6.931851653050091 4.482361910135035 13.000000000000002
    vertex 8.999999364850062 2.999999999999999 13.000000000000002
    vertex 7.000000000636761 5.000000000318379 13.000000000000002
  endloop
endfacet
facet normal -0.0 -0.0 1.0
  outer loop
    vertex -0.0060561129312568405 1.000002579295381 13.000000000000002
    vertex 0.0 7.999999999999999 13.000000000000002
    vertex -0.006056112931257396 2.999999999999999 13.000000000000002
  endloop
endfacet
facet normal -0.0 -0.0 1.0
  outer loop
    vertex 0.0 7.999999999999999 13.000000000000002
    vertex -0.0060561129312568405 1.000002579295381 13.000000000000002
    vertex 0.0 -0.9999999999999999 13.000000000000002
  endloop
endfacet
facet normal -0.0 -0.0 1.0
  outer loop
    vertex 0.0 7.999999999999999 13.000000000000002
    vertex 0.0 -0.9999999999999999 13.000000000000002
    vertex 0.9939438788777939 0.9984884109220488 12.999936004105347
  endloop
endfacet
facet normal -0.0 -0.0 1.0
  outer loop
    vertex 0.9939438788777939 0.9984884109220488 12.999936004105347
    vertex 0.0 -0.9999999999999999 13.000000000000002
    vertex 10.000000000000002 -1.0000000000000002 13.000000000000002
  endloop
endfacet
facet normal -0.0 -0.0 1.0
  outer loop
    vertex 0.9939438788777939 0.9984884109220488 12.999936004105347
    vertex 10.000000000000002 -1.0000000000000002 13.000000000000002
    vertex 8.996950095740619 0.9863705118059782 12.998847689107315
  endloop
endfacet
facet normal -0.0 -0.0 1.0
  outer loop
    vertex 8.996950095740619 0.9863705118059782 12.998847689107315
    vertex 10.000000000000002 -1.0000000000000002 13.000000000000002
    vertex 8.999999364850062 2.999999999999999 13.000000000000002
  endloop
endfacet
facet normal -0.0 -0.0 1.0
  outer loop
    vertex 8.999999364850062 2.999999999999999 13.000000000000002
    vertex 10.000000000000002 -1.0000000000000002 13.000000000000002
    vertex 9.999999999999998 2.999999999999999 13.000000000000002
  endloop
endfacet
facet normal -0.0 -0.0 1.0
  outer loop
    vertex 0.0 7.999999999999999 13.000000000000002
    vertex 4.482361911046781 6.931851653698079 13.000000000000002
    vertex 9.999999999999998 7.999999999999999 13.000000000000002
  endloop
endfacet
facet normal -0.0 -0.0 1.0
  outer loop
    vertex 4.482361911046781 6.931851653698079 13.000000000000002
    vertex 0.0 7.999999999999999 13.000000000000002
    vertex 4.0000000011882095 6.732050808842394 13.000000000000002
  endloop
endfacet
facet normal -0.0 -0.0 1.0
  outer loop
    vertex 4.0000000011882095 6.732050808842394 13.000000000000002
    vertex 0.0 7.999999999999999 13.000000000000002
    vertex 3.585786438713922 6.414213563778489 13.000000000000002
  endloop
endfacet
facet normal -0.0 -0.0 1.0
  outer loop
    vertex 3.585786438713922 6.414213563778489 13.000000000000002
    vertex 0.0 7.999999999999999 13.000000000000002
    vertex 3.2679491933862628 6.000000001506587 13.000000000000002
  endloop
endfacet
facet normal -0.0 -0.0 1.0
  outer loop
    vertex 3.2679491933862628 6.000000001506587 13.000000000000002
    vertex 0.0 7.999999999999999 13.000000000000002
    vertex 0.9939438870687425 2.999999999999999 13.000000000000002
  endloop
endfacet
facet normal -0.0 -0.0 1.0
  outer loop
    vertex 0.9939438870687425 2.999999999999999 13.000000000000002
    vertex 0.0 7.999999999999999 13.000000000000002
    vertex 0.9939438788777939 0.9984884109220488 12.999936004105347
  endloop
endfacet
facet normal -0.0 -0.0 1.0
  outer loop
    vertex 3.2679491933862628 6.000000001506587 13.000000000000002
    vertex 0.9939438870687425 2.999999999999999 13.000000000000002
    vertex 3.0681483482234295 5.5176380917752414 13.000000000000002
  endloop
endfacet
facet normal -0.0 -0.0 1.0
  outer loop
    vertex 3.0681483482234295 5.5176380917752414 13.000000000000002
    vertex 0.9939438870687425 2.999999999999999 13.000000000000002
    vertex 3.0000000006367604 5.000000001591896 13.000000000000002
  endloop
endfacet
facet normal -0.0 -0.0 1.0
  outer loop
    vertex 9.999999999999998 7.999999999999999 13.000000000000002
    vertex 4.482361911046781 6.931851653698079 13.000000000000002
    vertex 5.000000001273519 7.000000000955136 13.000000000000002
  endloop
endfacet
facet normal -0.0 -0.0 1.0
  outer loop
    vertex 9.999999999999998 7.999999999999999 13.000000000000002
    vertex 5.000000001273519 7.000000000955136 13.000000000000002
    vertex 5.517638091456864 6.931851653368469 13.000000000000002
  endloop
endfacet
facet normal -0.0 -0.0 1.0
  outer loop
    vertex 9.999999999999998 7.999999999999999 13.000000000000002
    vertex 5.517638091456864 6.931851653368469 13.000000000000002
    vertex 6.00000000118821 6.732050808205635 13.000000000000002
  endloop
endfacet
facet normal -0.0 -0.0 1.0
  outer loop
    vertex 9.999999999999998 7.999999999999999 13.000000000000002
    vertex 6.00000000118821 6.732050808205635 13.000000000000002
    vertex 6.414213563460112 6.414213562877976 13.000000000000002
  endloop
endfacet
facet normal -0.0 -0.0 1.0
  outer loop
    vertex 9.999999999999998 7.999999999999999 13.000000000000002
    vertex 6.414213563460112 6.414213562877976 13.000000000000002
    vertex 6.732050808524018 6.000000000403688 13.000000000000002
  endloop
endfacet
facet normal -0.0 -0.0 1.0
  outer loop
    vertex 9.999999999999998 7.999999999999999 13.000000000000002
    vertex 6.732050808524018 6.000000000403688 13.000000000000002
    vertex 6.931851653379702 5.517638090545117 13.000000000000002
  endloop
endfacet
facet normal -0.0 -0.0 1.0
  outer loop
    vertex 9.999999999999998 7.999999999999999 13.000000000000002
    vertex 6.931851653379702 5.517638090545117 13.000000000000002
    vertex 6.965925827008231 5.258819045431748 13.000000000000002
  endloop
endfacet
facet normal -0.0 -0.0 1.0
  outer loop
    vertex 9.999999999999998 7.999999999999999 13.000000000000002
    vertex 6.965925827008231 5.258819045431748 13.000000000000002
    vertex 7.000000000636761 5.000000000318379 13.000000000000002
  endloop
endfacet
facet normal -0.0 -0.0 1.0
  outer loop
    vertex 9.999999999999998 7.999999999999999 13.000000000000002
    vertex 7.000000000636761 5.000000000318379 13.000000000000002
    vertex 8.999999364850062 2.999999999999999 13.000000000000002
  endloop
endfacet
facet normal -0.0 -0.0 1.0
  outer loop
    vertex 9.999999999999998 7.999999999999999 13.000000000000002
    vertex 8.999999364850062 2.999999999999999 13.000000000000002
    vertex 9.999999999999998 2.999999999999999 13.000000000000002
  endloop
endfacet
facet normal -0.0 -0.0 1.0
  outer loop
    vertex 0.9939438870687425 2.999999999999999 13.000000000000002
    vertex 3.0548192531102547 4.583606438135402 13.000000000000002
    vertex 3.0000000006367604 5.000000001591896 13.000000000000002
  endloop
endfacet
facet normal -0.0 -0.0 1.0
  outer loop
    vertex 3.0548192531102547 4.583606438135402 13.000000000000002
    vertex 0.9939438870687425 2.999999999999999 13.000000000000002
    vertex 3.1680487703216613 4.241180956435874 13.000000000000002
  endloop
endfacet
facet normal -0.0 -0.0 1.0
  outer loop
    vertex 3.1680487703216613 4.241180956435874 13.000000000000002
    vertex 0.9939438870687425 2.999999999999999 13.000000000000002
    vertex 3.2679491927495037 4.000000001506588 13.000000000000002
  endloop
endfacet
facet normal -0.0 -0.0 1.0
  outer loop
    vertex 3.2679491927495037 4.000000001506588 13.000000000000002
    vertex 0.9939438870687425 2.999999999999999 13.000000000000002
    vertex 3.585786437813409 3.5857864390322995 13.000000000000002
  endloop
endfacet
facet normal -0.0 -0.0 1.0
  outer loop
    vertex 3.585786437813409 3.5857864390322995 13.000000000000002
    vertex 0.9939438870687425 2.999999999999999 13.000000000000002
    vertex 4.00000000008531 3.2679491937046405 13.000000000000002
  endloop
endfacet
facet normal -0.0 -0.0 1.0
  outer loop
    vertex 4.00000000008531 3.2679491937046405 13.000000000000002
    vertex 0.9939438870687425 2.999999999999999 13.000000000000002
    vertex 4.482361909816656 3.068148348541807 13.000000000000002
  endloop
endfacet
facet normal -0.0 -0.0 1.0
  outer loop
    vertex 4.482361909816656 3.068148348541807 13.000000000000002
    vertex 0.9939438870687425 2.999999999999999 13.000000000000002
    vertex 4.999999999999999 2.999999999999999 13.000000000000002
  endloop
endfacet
facet normal -0.0 -0.0 1.0
  outer loop
    vertex 4.482361909816656 3.068148348541807 13.000000000000002
    vertex 4.999999999999999 2.999999999999999 13.000000000000002
    vertex 4.611771957845013 3.0511132180642084 13.000000000000002
  endloop
endfacet
facet normal -1.7766999633594112e-06 -9.073269869099219e-07 -0.99999999999801
  outer loop
    vertex 0.0 7.999999999999999 1.9999999999999998
    vertex 3.2679491933862628 6.000000001506587 1.9999999999999998
    vertex 1.762479051592436e-16 1.209221006151617 1.9999999999999998
  endloop
endfacet
facet normal -1.7766999633594112e-06 -9.073269869099219e-07 -0.99999999999801
  outer loop
    vertex 3.2679491933862628 6.000000001506587 1.9999999999999998
    vertex 0.0 7.999999999999999 1.9999999999999998
    vertex 3.585786438713922 6.414213563778489 1.9999999999999998
  endloop
endfacet
facet normal -1.7766999633594112e-06 -9.073269869099219e-07 -0.99999999999801
  outer loop
    vertex 3.585786438713922 6.414213563778489 1.9999999999999998
    vertex 0.0 7.999999999999999 1.9999999999999998
    vertex 4.0000000011882095 6.732050808842394 1.9999999999999998
  endloop
endfacet
facet normal -1.7766999633594112e-06 -9.073269869099219e-07 -0.99999999999801
  outer loop
    vertex 4.0000000011882095 6.732050808842394 1.9999999999999998
    vertex 0.0 7.999999999999999 1.9999999999999998
    vertex 4.482361911046781 6.931851653698079 1.9999999999999998
  endloop
endfacet
facet normal -1.7766999633594112e-06 -9.073269869099219e-07 -0.99999999999801
  outer loop
    vertex 4.482361911046781 6.931851653698079 1.9999999999999998
    vertex 0.0 7.999999999999999 1.9999999999999998
    vertex 9.999999999999998 7.999999999999999 1.9999999999999998
  endloop
endfacet
facet normal -1.7766999633594112e-06 -9.073269869099219e-07 -0.99999999999801
  outer loop
    vertex 1.762479051592436e-16 1.209221006151617 1.9999999999999998
    vertex 3.2679491933862628 6.000000001506587 1.9999999999999998
    vertex 1.762479051592436e-16 0.08464337038782109 1.9999999999999998
  endloop
endfacet
facet normal -1.7766999633594112e-06 -9.073269869099219e-07 -0.99999999999801
  outer loop
    vertex 1.762479051592436e-16 0.08464337038782109 1.9999999999999998
    vertex 3.2679491933862628 6.000000001506587 1.9999999999999998
    vertex 3.0681483482234295 5.5176380917752414 1.9999999999999998
  endloop
endfacet
facet normal -1.7766999633594112e-06 -9.073269869099219e-07 -0.99999999999801
  outer loop
    vertex 1.762479051592436e-16 0.08464337038782109 1.9999999999999998
    vertex 3.0681483482234295 5.5176380917752414 1.9999999999999998
    vertex 2.187853123772304 2.9999985815392027 2.0000903983527794
  endloop
endfacet
facet normal -1.7766999633594112e-06 -9.073269869099219e-07 -0.99999999999801
  outer loop
    vertex 1.762479051592436e-16 0.08464337038782109 1.9999999999999998
    vertex 2.187853123772304 2.9999985815392027 2.0000903983527794
    vertex 1.6878528627898577 1.000002579295381 1.9999999999999991
  endloop
endfacet
facet normal -1.7766999633594112e-06 -9.073269869099219e-07 -0.99999999999801
  outer loop
    vertex 1.6878528627898577 1.000002579295381 1.9999999999999991
    vertex 2.187853123772304 2.9999985815392027 2.0000903983527794
    vertex 2.1878531081203136 1.000002579295381 1.9999999999999991
  endloop
endfacet
facet normal -1.7766999633594112e-06 -9.073269869099219e-07 -0.99999999999801
  outer loop
    vertex 2.187853123772304 2.9999985815392027 2.0000903983527794
    vertex 3.0681483482234295 5.5176380917752414 1.9999999999999998
    vertex 3.0000000006367604 5.000000001591896 1.9999999999999998
  endloop
endfacet
facet normal -1.7766999633594112e-06 -9.073269869099219e-07 -0.99999999999801
  outer loop
    vertex 4.482361911046781 6.931851653698079 1.9999999999999998
    vertex 9.999999999999998 7.999999999999999 1.9999999999999998
    vertex 5.000000001273519 7.000000000955136 1.9999999999999998
  endloop
endfacet
facet normal -1.7766999633594112e-06 -9.073269869099219e-07 -0.99999999999801
  outer loop
    vertex 5.000000001273519 7.000000000955136 1.9999999999999998
    vertex 9.999999999999998 7.999999999999999 1.9999999999999998
    vertex 5.517638091456864 6.931851653368469 1.9999999999999998
  endloop
endfacet
facet normal -1.7766999633594112e-06 -9.073269869099219e-07 -0.99999999999801
  outer loop
    vertex 5.517638091456864 6.931851653368469 1.9999999999999998
    vertex 9.999999999999998 7.999999999999999 1.9999999999999998
    vertex 6.00000000118821 6.732050808205635 1.9999999999999998
  endloop
endfacet
facet normal -1.7766999633594112e-06 -9.073269869099219e-07 -0.99999999999801
  outer loop
    vertex 6.00000000118821 6.732050808205635 1.9999999999999998
    vertex 9.999999999999998 7.999999999999999 1.9999999999999998
    vertex 6.414213563460112 6.414213562877976 1.9999999999999998
  endloop
endfacet
facet normal -1.7766999633594112e-06 -9.073269869099219e-07 -0.99999999999801
  outer loop
    vertex 6.414213563460112 6.414213562877976 1.9999999999999998
    vertex 9.999999999999998 7.999999999999999 1.9999999999999998
    vertex 6.732050808524018 6.000000000403688 1.9999999999999998
  endloop
endfacet
facet normal -1.7766999633594112e-06 -9.073269869099219e-07 -0.99999999999801
  outer loop
    vertex 6.732050808524018 6.000000000403688 1.9999999999999998
    vertex 9.999999999999998 7.999999999999999 1.9999999999999998
    vertex 6.931851653379702 5.517638090545117 1.9999999999999998
  endloop
endfacet
facet normal -1.7766999633594112e-06 -9.073269869099219e-07 -0.99999999999801
  outer loop
    vertex 6.931851653379702 5.517638090545117 1.9999999999999998
    vertex 9.999999999999998 7.999999999999999 1.9999999999999998
    vertex 6.965925827008231 5.258819045431748 1.9999999999999998
  endloop
endfacet
facet normal -1.7766999633594112e-06 -9.073269869099219e-07 -0.99999999999801
  outer loop
    vertex 6.965925827008231 5.258819045431748 1.9999999999999998
    vertex 9.999999999999998 7.999999999999999 1.9999999999999998
    vertex 7.000000000636761 5.000000000318379 1.9999999999999998
  endloop
endfacet
facet normal -1.7766999633594112e-06 -9.073269869099219e-07 -0.99999999999801
  outer loop
    vertex 7.000000000636761 5.000000000318379 1.9999999999999998
    vertex 9.999999999999998 7.999999999999999 1.9999999999999998
    vertex 7.807692307692307 2.9999985910103946 1.9999999999999998
  endloop
endfacet
facet normal -1.7766999633594112e-06 -9.073269869099219e-07 -0.99999999999801
  outer loop
    vertex 7.807692307692307 2.9999985910103946 1.9999999999999998
    vertex 9.999999999999998 7.999999999999999 1.9999999999999998
    vertex 8.307692307692307 1.000002579295381 1.9999999999999998
  endloop
endfacet
facet normal -1.7766999633594112e-06 -9.073269869099219e-07 -0.99999999999801
  outer loop
    vertex 8.307692307692307 1.000002579295381 1.9999999999999998
    vertex 9.999999999999998 7.999999999999999 1.9999999999999998
    vertex 9.999999999999998 5.291665572742794 1.9999999999999998
  endloop
endfacet
facet normal -1.7766999633594112e-06 -9.073269869099219e-07 -0.99999999999801
  outer loop
    vertex 8.307692307692307 1.000002579295381 1.9999999999999998
    vertex 9.999999999999998 5.291665572742794 1.9999999999999998
    vertex 10.0 4.208334730451667 1.9999999999999998
  endloop
endfacet
facet normal -1.7766999633594112e-06 -9.073269869099219e-07 -0.99999999999801
  outer loop
    vertex 2.1878531081203136 1.000002579295381 1.9999999999999991
    vertex 10.000000000000002 -0.6121074393753335 1.9999999999999998
    vertex 1.6878528627898577 1.000002579295381 1.9999999999999991
  endloop
endfacet
facet normal -1.7766999633594112e-06 -9.073269869099219e-07 -0.99999999999801
  outer loop
    vertex 10.000000000000002 -0.6121074393753335 1.9999999999999998
    vertex 2.1878531081203136 1.000002579295381 1.9999999999999991
    vertex 7.80768986544853 1.000002579295381 1.9999999999999998
  endloop
endfacet
facet normal -1.7766999633594112e-06 -9.073269869099219e-07 -0.99999999999801
  outer loop
    vertex 10.000000000000002 -0.6121074393753335 1.9999999999999998
    vertex 7.80768986544853 1.000002579295381 1.9999999999999998
    vertex 8.307692307692307 1.000002579295381 1.9999999999999998
  endloop
endfacet
facet normal -1.7766999633594112e-06 -9.073269869099219e-07 -0.99999999999801
  outer loop
    vertex 8.307692307692307 1.000002579295381 1.9999999999999998
    vertex 7.80768986544853 1.000002579295381 1.9999999999999998
    vertex 7.807692307692307 2.9999985910103946 1.9999999999999998
  endloop
endfacet
facet normal -1.7766999633594112e-06 -9.073269869099219e-07 -0.99999999999801
  outer loop
    vertex 10.000000000000002 -0.6121074393753335 1.9999999999999998
    vertex 8.307692307692307 1.000002579295381 1.9999999999999998
    vertex 10.000000000000002 0.08333473045166429 1.9999999999999998
  endloop
endfacet
facet normal -1.7766999633594112e-06 -9.073269869099219e-07 -0.99999999999801
  outer loop
    vertex 5.388228044955325 3.0511132113036052 1.9999999999999998
    vertex 7.807692307692307 2.9999985910103946 1.9999999999999998
    vertex 5.000000000000003 3.0000020195517654 1.9999999999999998
  endloop
endfacet
facet normal -1.7766999633594112e-06 -9.073269869099219e-07 -0.99999999999801
  outer loop
    vertex 7.807692307692307 2.9999985910103946 1.9999999999999998
    vertex 5.388228044955325 3.0511132113036052 1.9999999999999998
    vertex 5.517638090226741 3.0681483482121963 1.9999999999999998
  endloop
endfacet
facet normal -1.7766999633594112e-06 -9.073269869099219e-07 -0.99999999999801
  outer loop
    vertex 7.807692307692307 2.9999985910103946 1.9999999999999998
    vertex 5.517638090226741 3.0681483482121963 1.9999999999999998
    vertex 6.000000000085311 3.2679491930678815 1.9999999999999998
  endloop
endfacet
facet normal -1.7766999633594112e-06 -9.073269869099219e-07 -0.99999999999801
  outer loop
    vertex 7.807692307692307 2.9999985910103946 1.9999999999999998
    vertex 6.000000000085311 3.2679491930678815 1.9999999999999998
    vertex 6.414213562559599 3.585786438131786 1.9999999999999998
  endloop
endfacet
facet normal -1.7766999633594112e-06 -9.073269869099219e-07 -0.99999999999801
  outer loop
    vertex 7.807692307692307 2.9999985910103946 1.9999999999999998
    vertex 6.414213562559599 3.585786438131786 1.9999999999999998
    vertex 6.732050807887258 4.000000000403689 1.9999999999999998
  endloop
endfacet
facet normal -1.7766999633594112e-06 -9.073269869099219e-07 -0.99999999999801
  outer loop
    vertex 7.807692307692307 2.9999985910103946 1.9999999999999998
    vertex 6.732050807887258 4.000000000403689 1.9999999999999998
    vertex 6.931851653050091 4.482361910135035 1.9999999999999998
  endloop
endfacet
facet normal -1.7766999633594112e-06 -9.073269869099219e-07 -0.99999999999801
  outer loop
    vertex 7.807692307692307 2.9999985910103946 1.9999999999999998
    vertex 6.931851653050091 4.482361910135035 1.9999999999999998
    vertex 7.000000000636761 5.000000000318379 1.9999999999999998
  endloop
endfacet
facet normal -1.7766999633594112e-06 -9.073269869099219e-07 -0.99999999999801
  outer loop
    vertex 2.187853123772304 2.9999985815392027 2.0000903983527794
    vertex 4.482361909816656 3.068148348541807 1.9999999999999998
    vertex 5.000000000000003 3.0000020195517654 1.9999999999999998
  endloop
endfacet
facet normal -1.7766999633594112e-06 -9.073269869099219e-07 -0.99999999999801
  outer loop
    vertex 4.482361909816656 3.068148348541807 1.9999999999999998
    vertex 2.187853123772304 2.9999985815392027 2.0000903983527794
    vertex 4.00000000008531 3.2679491937046405 1.9999999999999998
  endloop
endfacet
facet normal -1.7766999633594112e-06 -9.073269869099219e-07 -0.99999999999801
  outer loop
    vertex 4.00000000008531 3.2679491937046405 1.9999999999999998
    vertex 2.187853123772304 2.9999985815392027 2.0000903983527794
    vertex 3.585786437813409 3.5857864390322995 1.9999999999999998
  endloop
endfacet
facet normal -1.7766999633594112e-06 -9.073269869099219e-07 -0.99999999999801
  outer loop
    vertex 3.585786437813409 3.5857864390322995 1.9999999999999998
    vertex 2.187853123772304 2.9999985815392027 2.0000903983527794
    vertex 3.2679491927495037 4.000000001506588 1.9999999999999998
  endloop
endfacet
facet normal -1.7766999633594112e-06 -9.073269869099219e-07 -0.99999999999801
  outer loop
    vertex 3.2679491927495037 4.000000001506588 1.9999999999999998
    vertex 2.187853123772304 2.9999985815392027 2.0000903983527794
    vertex 3.1680487703216613 4.241180956435874 1.9999999999999998
  endloop
endfacet
facet normal -1.7766999633594112e-06 -9.073269869099219e-07 -0.99999999999801
  outer loop
    vertex 3.1680487703216613 4.241180956435874 1.9999999999999998
    vertex 2.187853123772304 2.9999985815392027 2.0000903983527794
    vertex 3.0548192531102547 4.583606438135402 1.9999999999999998
  endloop
endfacet
facet normal -1.7766999633594112e-06 -9.073269869099219e-07 -0.99999999999801
  outer loop
    vertex 3.0548192531102547 4.583606438135402 1.9999999999999998
    vertex 2.187853123772304 2.9999985815392027 2.0000903983527794
    vertex 3.0000000006367604 5.000000001591896 1.9999999999999998
  endloop
endfacet
facet normal -1.7766999633594112e-06 -9.073269869099219e-07 -0.99999999999801
  outer loop
    vertex 5.000000000000003 3.0000020195517654 1.9999999999999998
    vertex 4.482361909816656 3.068148348541807 1.9999999999999998
    vertex 4.611771957845013 3.0511132180642084 1.9999999999999998
  endloop
endfacet
facet normal -1.7766999633594112e-06 -9.073269869099219e-07 -0.99999999999801
  outer loop
    vertex 1.762479051592436e-16 0.08464337038782109 1.9999999999999998
    vertex -6.869552031385506e-09 1.16811805248832 2.0000828827606334
    vertex 1.762479051592436e-16 1.209221006151617 1.9999999999999998
  endloop
endfacet
facet normal -0.1305287270192913 0.991444527657859 9.101243393198785e-08
  outer loop
    vertex 4.999999999999999 2.999999999999999 13.000000000000002
    vertex 5.388228044955325 3.0511132113036052 1.9999999999999998
    vertex 5.000000000000003 3.0000020195517654 1.9999999999999998
  endloop
endfacet
facet normal -0.1305287270192913 0.991444527657859 9.101243393198785e-08
  outer loop
    vertex 5.388228044955325 3.0511132113036052 1.9999999999999998
    vertex 4.999999999999999 2.999999999999999 13.000000000000002
    vertex 5.388228044955325 3.0511132113036052 13.000000000000002
  endloop
endfacet
facet normal 0.1305287449156273 0.9914445253017149 9.101243375765299e-08
  outer loop
    vertex 4.611771957845013 3.0511132180642084 13.000000000000002
    vertex 5.000000000000003 3.0000020195517654 1.9999999999999998
    vertex 4.611771957845013 3.0511132180642084 1.9999999999999998
  endloop
endfacet
facet normal 0.1305287449156273 0.9914445253017149 9.101243375765299e-08
  outer loop
    vertex 5.000000000000003 3.0000020195517654 1.9999999999999998
    vertex 4.611771957845013 3.0511132180642084 13.000000000000002
    vertex 4.999999999999999 2.999999999999999 13.000000000000002
  endloop
endfacet
facet normal 0.13051093821962265 0.9914468694816853 0.0
  outer loop
    vertex 4.482361909816656 3.068148348541807 13.000000000000002
    vertex 4.611771957845013 3.0511132180642084 1.9999999999999998
    vertex 4.482361909816656 3.068148348541807 1.9999999999999998
  endloop
endfacet
facet normal 0.13051093821962265 0.9914468694816853 0.0
  outer loop
    vertex 4.611771957845013 3.0511132180642084 1.9999999999999998
    vertex 4.482361909816656 3.068148348541807 13.000000000000002
    vertex 4.611771957845013 3.0511132180642084 13.000000000000002
  endloop
endfacet
facet normal 0.3826834326592344 0.9238795323894481 0.0
  outer loop
    vertex 4.00000000008531 3.2679491937046405 13.000000000000002
    vertex 4.482361909816656 3.068148348541807 1.9999999999999998
    vertex 4.00000000008531 3.2679491937046405 1.9999999999999998
  endloop
endfacet
facet normal 0.3826834326592344 0.9238795323894481 0.0
  outer loop
    vertex 4.482361909816656 3.068148348541807 1.9999999999999998
    vertex 4.00000000008531 3.2679491937046405 13.000000000000002
    vertex 4.482361909816656 3.068148348541807 13.000000000000002
  endloop
endfacet
facet normal 0.6087614292613083 0.7933533400974181 0.0
  outer loop
    vertex 3.585786437813409 3.5857864390322995 13.000000000000002
    vertex 4.00000000008531 3.2679491937046405 1.9999999999999998
    vertex 3.585786437813409 3.5857864390322995 1.9999999999999998
  endloop
endfacet
facet normal 0.6087614292613083 0.7933533400974181 0.0
  outer loop
    vertex 4.00000000008531 3.2679491937046405 1.9999999999999998
    vertex 3.585786437813409 3.5857864390322995 13.000000000000002
    vertex 4.00000000008531 3.2679491937046405 13.000000000000002
  endloop
endfacet
facet normal 0.7933533404850526 0.608761428756133 0.0
  outer loop
    vertex 3.2679491927495037 4.000000001506588 1.9999999999999998
    vertex 3.585786437813409 3.5857864390322995 13.000000000000002
    vertex 3.585786437813409 3.5857864390322995 1.9999999999999998
  endloop
endfacet
facet normal 0.7933533404850526 0.608761428756133 0.0
  outer loop
    vertex 3.585786437813409 3.5857864390322995 13.000000000000002
    vertex 3.2679491927495037 4.000000001506588 1.9999999999999998
    vertex 3.2679491927495037 4.000000001506588 13.000000000000002
  endloop
endfacet
facet normal 0.9238795326331256 0.3826834320709448 0.0
  outer loop
    vertex 3.1680487703216613 4.241180956435874 1.9999999999999998
    vertex 3.2679491927495037 4.000000001506588 13.000000000000002
    vertex 3.2679491927495037 4.000000001506588 1.9999999999999998
  endloop
endfacet
facet normal 0.9238795326331256 0.3826834320709448 0.0
  outer loop
    vertex 3.2679491927495037 4.000000001506588 13.000000000000002
    vertex 3.1680487703216613 4.241180956435874 1.9999999999999998
    vertex 3.1680487703216613 4.241180956435874 13.000000000000002
  endloop
endfacet
facet normal 0.9494394320628788 0.31395025855080666 -1.9499335382396618e-33
  outer loop
    vertex 3.0548192531102547 4.583606438135402 1.9999999999999998
    vertex 3.1680487703216613 4.241180956435874 13.000000000000002
    vertex 3.1680487703216613 4.241180956435874 1.9999999999999998
  endloop
endfacet
facet normal 0.9494394320628788 0.31395025855080666 -1.9499335382396618e-33
  outer loop
    vertex 3.1680487703216613 4.241180956435874 13.000000000000002
    vertex 3.0548192531102547 4.583606438135402 1.9999999999999998
    vertex 3.0548192531102547 4.583606438135402 13.000000000000002
  endloop
endfacet
facet normal 0.9914448614153674 0.13052619190439585 2.572345641584463e-33
  outer loop
    vertex 3.0000000006367604 5.000000001591896 1.9999999999999998
    vertex 3.0548192531102547 4.583606438135402 13.000000000000002
    vertex 3.0548192531102547 4.583606438135402 1.9999999999999998
  endloop
endfacet
facet normal 0.9914448614153674 0.13052619190439585 2.572345641584463e-33
  outer loop
    vertex 3.0548192531102547 4.583606438135402 13.000000000000002
    vertex 3.0000000006367604 5.000000001591896 1.9999999999999998
    vertex 3.0000000006367604 5.000000001591896 13.000000000000002
  endloop
endfacet
facet normal 0.9914448613322536 -0.13052619253570766 -0.0
  outer loop
    vertex 3.0681483482234295 5.5176380917752414 1.9999999999999998
    vertex 3.0000000006367604 5.000000001591896 13.000000000000002
    vertex 3.0000000006367604 5.000000001591896 1.9999999999999998
  endloop
endfacet
facet normal 0.9914448613322536 -0.13052619253570766 -0.0
  outer loop
    vertex 3.0000000006367604 5.000000001591896 13.000000000000002
    vertex 3.0681483482234295 5.5176380917752414 1.9999999999999998
    vertex 3.0681483482234295 5.5176380917752414 13.000000000000002
  endloop
endfacet
facet normal 0.9238795323894483 -0.3826834326592338 -0.0
  outer loop
    vertex 3.2679491933862628 6.000000001506587 1.9999999999999998
    vertex 3.0681483482234295 5.5176380917752414 13.000000000000002
    vertex 3.0681483482234295 5.5176380917752414 1.9999999999999998
  endloop
endfacet
facet normal 0.9238795323894483 -0.3826834326592338 -0.0
  outer loop
    vertex 3.0681483482234295 5.5176380917752414 13.000000000000002
    vertex 3.2679491933862628 6.000000001506587 1.9999999999999998
    vertex 3.2679491933862628 6.000000001506587 13.000000000000002
  endloop
endfacet
facet normal 0.7933533400974174 -0.608761429261309 -0.0
  outer loop
    vertex 3.585786438713922 6.414213563778489 1.9999999999999998
    vertex 3.2679491933862628 6.000000001506587 13.000000000000002
    vertex 3.2679491933862628 6.000000001506587 1.9999999999999998
  endloop
endfacet
facet normal 0.7933533400974174 -0.608761429261309 -0.0
  outer loop
    vertex 3.2679491933862628 6.000000001506587 13.000000000000002
    vertex 3.585786438713922 6.414213563778489 1.9999999999999998
    vertex 3.585786438713922 6.414213563778489 13.000000000000002
  endloop
endfacet
facet normal 0.6087614287561344 -0.7933533404850516 -0.0
  outer loop
    vertex 4.0000000011882095 6.732050808842394 13.000000000000002
    vertex 3.585786438713922 6.414213563778489 1.9999999999999998
    vertex 4.0000000011882095 6.732050808842394 1.9999999999999998
  endloop
endfacet
facet normal 0.6087614287561344 -0.7933533404850516 -0.0
  outer loop
    vertex 3.585786438713922 6.414213563778489 1.9999999999999998
    vertex 4.0000000011882095 6.732050808842394 13.000000000000002
    vertex 3.585786438713922 6.414213563778489 13.000000000000002
  endloop
endfacet
facet normal 0.3826834320709443 -0.9238795326331258 -0.0
  outer loop
    vertex 4.482361911046781 6.931851653698079 13.000000000000002
    vertex 4.0000000011882095 6.732050808842394 1.9999999999999998
    vertex 4.482361911046781 6.931851653698079 1.9999999999999998
  endloop
endfacet
facet normal 0.3826834320709443 -0.9238795326331258 -0.0
  outer loop
    vertex 4.0000000011882095 6.732050808842394 1.9999999999999998
    vertex 4.482361911046781 6.931851653698079 13.000000000000002
    vertex 4.0000000011882095 6.732050808842394 13.000000000000002
  endloop
endfacet
facet normal 0.1305261919043953 -0.9914448614153674 -0.0
  outer loop
    vertex 5.000000001273519 7.000000000955136 13.000000000000002
    vertex 4.482361911046781 6.931851653698079 1.9999999999999998
    vertex 5.000000001273519 7.000000000955136 1.9999999999999998
  endloop
endfacet
facet normal 0.1305261919043953 -0.9914448614153674 -0.0
  outer loop
    vertex 4.482361911046781 6.931851653698079 1.9999999999999998
    vertex 5.000000001273519 7.000000000955136 13.000000000000002
    vertex 4.482361911046781 6.931851653698079 13.000000000000002
  endloop
endfacet
facet normal -0.13052619253570563 -0.9914448613322538 -0.0
  outer loop
    vertex 5.517638091456864 6.931851653368469 13.000000000000002
    vertex 5.000000001273519 7.000000000955136 1.9999999999999998
    vertex 5.517638091456864 6.931851653368469 1.9999999999999998
  endloop
endfacet
facet normal -0.13052619253570563 -0.9914448613322538 -0.0
  outer loop
    vertex 5.000000001273519 7.000000000955136 1.9999999999999998
    vertex 5.517638091456864 6.931851653368469 13.000000000000002
    vertex 5.000000001273519 7.000000000955136 13.000000000000002
  endloop
endfacet
facet normal -0.38268343265923505 -0.9238795323894479 -0.0
  outer loop
    vertex 6.00000000118821 6.732050808205635 13.000000000000002
    vertex 5.517638091456864 6.931851653368469 1.9999999999999998
    vertex 6.00000000118821 6.732050808205635 1.9999999999999998
  endloop
endfacet
facet normal -0.38268343265923505 -0.9238795323894479 -0.0
  outer loop
    vertex 5.517638091456864 6.931851653368469 1.9999999999999998
    vertex 6.00000000118821 6.732050808205635 13.000000000000002
    vertex 5.517638091456864 6.931851653368469 13.000000000000002
  endloop
endfacet
facet normal -0.6087614292613073 -0.7933533400974188 -0.0
  outer loop
    vertex 6.414213563460112 6.414213562877976 13.000000000000002
    vertex 6.00000000118821 6.732050808205635 1.9999999999999998
    vertex 6.414213563460112 6.414213562877976 1.9999999999999998
  endloop
endfacet
facet normal -0.6087614292613073 -0.7933533400974188 -0.0
  outer loop
    vertex 6.00000000118821 6.732050808205635 1.9999999999999998
    vertex 6.414213563460112 6.414213562877976 13.000000000000002
    vertex 6.00000000118821 6.732050808205635 13.000000000000002
  endloop
endfacet
facet normal -0.7933533404850526 -0.608761428756133 -0.0
  outer loop
    vertex 6.414213563460112 6.414213562877976 13.000000000000002
    vertex 6.732050808524018 6.000000000403688 1.9999999999999998
    vertex 6.732050808524018 6.000000000403688 13.000000000000002
  endloop
endfacet
facet normal -0.7933533404850526 -0.608761428756133 -0.0
  outer loop
    vertex 6.732050808524018 6.000000000403688 1.9999999999999998
    vertex 6.414213563460112 6.414213562877976 13.000000000000002
    vertex 6.414213563460112 6.414213562877976 1.9999999999999998
  endloop
endfacet
facet normal -0.9238795326331255 -0.3826834320709453 -0.0
  outer loop
    vertex 6.732050808524018 6.000000000403688 13.000000000000002
    vertex 6.931851653379702 5.517638090545117 1.9999999999999998
    vertex 6.931851653379702 5.517638090545117 13.000000000000002
  endloop
endfacet
facet normal -0.9238795326331255 -0.3826834320709453 -0.0
  outer loop
    vertex 6.931851653379702 5.517638090545117 1.9999999999999998
    vertex 6.732050808524018 6.000000000403688 13.000000000000002
    vertex 6.732050808524018 6.000000000403688 1.9999999999999998
  endloop
endfacet
facet normal -0.9914448614153671 -0.1305261919043978 -0.0
  outer loop
    vertex 6.931851653379702 5.517638090545117 13.000000000000002
    vertex 6.965925827008231 5.258819045431748 1.9999999999999998
    vertex 6.965925827008231 5.258819045431748 13.000000000000002
  endloop
endfacet
facet normal -0.9914448614153671 -0.1305261919043978 -0.0
  outer loop
    vertex 6.965925827008231 5.258819045431748 1.9999999999999998
    vertex 6.931851653379702 5.517638090545117 13.000000000000002
    vertex 6.931851653379702 5.517638090545117 1.9999999999999998
  endloop
endfacet
facet normal -0.9914448614153671 -0.1305261919043978 -0.0
  outer loop
    vertex 6.965925827008231 5.258819045431748 13.000000000000002
    vertex 7.000000000636761 5.000000000318379 1.9999999999999998
    vertex 7.000000000636761 5.000000000318379 13.000000000000002
  endloop
endfacet
facet normal -0.9914448614153671 -0.1305261919043978 -0.0
  outer loop
    vertex 7.000000000636761 5.000000000318379 1.9999999999999998
    vertex 6.965925827008231 5.258819045431748 13.000000000000002
    vertex 6.965925827008231 5.258819045431748 1.9999999999999998
  endloop
endfacet
facet normal -0.9914448613322535 0.13052619253570846 -0.0
  outer loop
    vertex 7.000000000636761 5.000000000318379 13.000000000000002
    vertex 6.931851653050091 4.482361910135035 1.9999999999999998
    vertex 6.931851653050091 4.482361910135035 13.000000000000002
  endloop
endfacet
facet normal -0.9914448613322535 0.13052619253570846 -0.0
  outer loop
    vertex 6.931851653050091 4.482361910135035 1.9999999999999998
    vertex 7.000000000636761 5.000000000318379 13.000000000000002
    vertex 7.000000000636761 5.000000000318379 1.9999999999999998
  endloop
endfacet
facet normal -0.9238795323894479 0.38268343265923505 -0.0
  outer loop
    vertex 6.931851653050091 4.482361910135035 13.000000000000002
    vertex 6.732050807887258 4.000000000403689 1.9999999999999998
    vertex 6.732050807887258 4.000000000403689 13.000000000000002
  endloop
endfacet
facet normal -0.9238795323894479 0.38268343265923505 -0.0
  outer loop
    vertex 6.732050807887258 4.000000000403689 1.9999999999999998
    vertex 6.931851653050091 4.482361910135035 13.000000000000002
    vertex 6.931851653050091 4.482361910135035 1.9999999999999998
  endloop
endfacet
facet normal -0.7933533400974191 0.6087614292613067 -0.0
  outer loop
    vertex 6.732050807887258 4.000000000403689 13.000000000000002
    vertex 6.414213562559599 3.585786438131786 1.9999999999999998
    vertex 6.414213562559599 3.585786438131786 13.000000000000002
  endloop
endfacet
facet normal -0.7933533400974191 0.6087614292613067 -0.0
  outer loop
    vertex 6.414213562559599 3.585786438131786 1.9999999999999998
    vertex 6.732050807887258 4.000000000403689 13.000000000000002
    vertex 6.732050807887258 4.000000000403689 1.9999999999999998
  endloop
endfacet
facet normal -0.6087614287561328 0.7933533404850528 -0.0
  outer loop
    vertex 6.000000000085311 3.2679491930678815 13.000000000000002
    vertex 6.414213562559599 3.585786438131786 1.9999999999999998
    vertex 6.000000000085311 3.2679491930678815 1.9999999999999998
  endloop
endfacet
facet normal -0.6087614287561328 0.7933533404850528 -0.0
  outer loop
    vertex 6.414213562559599 3.585786438131786 1.9999999999999998
    vertex 6.000000000085311 3.2679491930678815 13.000000000000002
    vertex 6.414213562559599 3.585786438131786 13.000000000000002
  endloop
endfacet
facet normal -0.3826834320709454 0.9238795326331255 -0.0
  outer loop
    vertex 5.517638090226741 3.0681483482121963 13.000000000000002
    vertex 6.000000000085311 3.2679491930678815 1.9999999999999998
    vertex 5.517638090226741 3.0681483482121963 1.9999999999999998
  endloop
endfacet
facet normal -0.3826834320709454 0.9238795326331255 -0.0
  outer loop
    vertex 6.000000000085311 3.2679491930678815 1.9999999999999998
    vertex 5.517638090226741 3.0681483482121963 13.000000000000002
    vertex 6.000000000085311 3.2679491930678815 13.000000000000002
  endloop
endfacet
facet normal -0.13051098938309005 0.9914468627466866 -0.0
  outer loop
    vertex 5.388228044955325 3.0511132113036052 13.000000000000002
    vertex 5.517638090226741 3.0681483482121963 1.9999999999999998
    vertex 5.388228044955325 3.0511132113036052 1.9999999999999998
  endloop
endfacet
facet normal -0.13051098938309005 0.9914468627466866 -0.0
  outer loop
    vertex 5.517638090226741 3.0681483482121963 1.9999999999999998
    vertex 5.388228044955325 3.0511132113036052 13.000000000000002
    vertex 5.517638090226741 3.0681483482121963 13.000000000000002
  endloop
endfacet
facet normal -1.0 9.965055868828906e-11 1.5109933894680855e-10
  outer loop
    vertex 0.0 3.5 7.5
    vertex 0.0 -0.9999999999999999 1.9999999999999998
    vertex 0.0 -0.9999999999999999 13.000000000000002
  endloop
endfacet
facet normal -1.0 9.965055868828906e-11 1.5109933894680855e-10
  outer loop
    vertex 0.0 -0.9999999999999999 1.9999999999999998
    vertex 0.0 3.5 7.5
    vertex 1.762479051592436e-16 0.08464337038782109 1.9999999999999998
  endloop
endfacet
facet normal -1.0 9.965055868828906e-11 1.5109933894680855e-10
  outer loop
    vertex 1.762479051592436e-16 0.08464337038782109 1.9999999999999998
    vertex 0.0 3.5 7.5
    vertex -6.869552031385506e-09 1.16811805248832 2.0000828827606334
  endloop
endfacet
facet normal -1.0 9.965055868828906e-11 1.5109933894680855e-10
  outer loop
    vertex -6.869552031385506e-09 1.16811805248832 2.0000828827606334
    vertex 0.0 3.5 7.5
    vertex 1.762479051592436e-16 1.209221006151617 1.9999999999999998
  endloop
endfacet
facet normal -1.0 9.965055868828906e-11 1.5109933894680855e-10
  outer loop
    vertex 1.762479051592436e-16 1.209221006151617 1.9999999999999998
    vertex 0.0 3.5 7.5
    vertex 0.0 7.999999999999999 1.9999999999999998
  endloop
endfacet
facet normal -1.0 0.0 0.0
  outer loop
    vertex 0.0 7.999999999999999 1.9999999999999998
    vertex 0.0 3.5 7.5
    vertex 0.0 7.999999999999999 13.000000000000002
  endloop
endfacet
facet normal -0.9999987754313776 0.0012112211030263053 -0.0009909990842942493
  outer loop
    vertex 0.0 7.999999999999999 13.000000000000002
    vertex 0.0 3.5 7.5
    vertex -0.006056112931257396 2.999999999999999 13.000000000000002
  endloop
endfacet
facet normal -0.9999987754313776 0.0012112211030263053 -0.0009909990842942493
  outer loop
    vertex 0.0 7.999999999999999 13.000000000000002
    vertex 0.0 3.5 7.5
    vertex -0.006056112931257396 2.999999999999999 13.000000000000002
  endloop
endfacet
facet normal -0.9999923465396557 -0.0030280293854272303 -0.002477478588076824
  outer loop
    vertex 0.0 3.5 7.5
    vertex 0.0 -0.9999999999999999 13.000000000000002
    vertex -0.0060561129312568405 1.000002579295381 13.000000000000002
  endloop
endfacet
facet normal -0.9999993937773475 -2.769873198131168e-16 -0.0011011107745281246
  outer loop
    vertex 0.0 3.5 7.5
    vertex -0.0060561129312568405 1.000002579295381 13.000000000000002
    vertex -0.006056112931257396 2.999999999999999 13.000000000000002
  endloop
endfacet
facet normal -0.9999923465396557 -0.0030280293854272303 -0.002477478588076824
  outer loop
    vertex 0.0 3.5 7.5
    vertex 0.0 -0.9999999999999999 13.000000000000002
    vertex -0.0060561129312568405 1.000002579295381 13.000000000000002
  endloop
endfacet
endsolid poele-connecteur-servo
