solid model
facet normal -0.2588190451025208 -0.9659258262890683 9.604558161171253e-17
outer loop
vertex -8.799847533485707 -32.84147809382832 -3.0
vertex -16.999999999999996 -29.444863728670914 -6.0
vertex -8.799847533485707 -32.84147809382832 -6.0
endloop
endfacet
facet normal -0.49999999999999994 -0.8660254037844388 0.0
outer loop
vertex -16.999999999999996 -29.444863728670914 -6.0
vertex -8.799847533485707 -32.84147809382832 -3.0
vertex -16.999999999999996 -29.444863728670914 -3.0
endloop
endfacet
facet normal -0.49999999999999994 -0.8660254037844388 0.0
outer loop
vertex -16.999999999999996 -29.444863728670914 -3.0
vertex -24.041630560342615 -24.041630560342615 -6.0
vertex -16.999999999999996 -29.444863728670914 -6.0
endloop
endfacet
facet normal -0.7071067811865474 -0.7071067811865477 0.0
outer loop
vertex -24.041630560342615 -24.041630560342615 -6.0
vertex -16.999999999999996 -29.444863728670914 -3.0
vertex -24.041630560342615 -24.041630560342615 -3.0
endloop
endfacet
facet normal -0.8660254037844386 -0.5000000000000001 0.0
outer loop
vertex -29.444863728670914 -16.999999999999996 -3.0
vertex -24.041630560342615 -24.041630560342615 -6.0
vertex -24.041630560342615 -24.041630560342615 -3.0
endloop
endfacet
facet normal -0.7071067811865474 -0.7071067811865477 0.0
outer loop
vertex -24.041630560342615 -24.041630560342615 -6.0
vertex -29.444863728670914 -16.999999999999996 -3.0
vertex -29.444863728670914 -16.999999999999996 -6.0
endloop
endfacet
facet normal -0.9659258262890684 -0.2588190451025208 2.7553011928858955e-16
outer loop
vertex -32.84147809382832 -8.799847533485712 -3.0
vertex -29.444863728670914 -16.999999999999996 -6.0
vertex -29.444863728670914 -16.999999999999996 -3.0
endloop
endfacet
facet normal -0.8660254037844386 -0.5000000000000001 0.0
outer loop
vertex -29.444863728670914 -16.999999999999996 -6.0
vertex -32.84147809382832 -8.799847533485712 -3.0
vertex -32.84147809382832 -8.799847533485712 -6.0
endloop
endfacet
facet normal -0.9914448613738105 -0.1305261922200517 5.463458418447701e-16
outer loop
vertex -33.21008501447562 -5.999999999999995 -2.9999999999999973
vertex -32.84147809382832 -8.799847533485712 -6.0
vertex -32.84147809382832 -8.799847533485712 -3.0
endloop
endfacet
facet normal -0.9659258262890683 -0.2588190451025208 2.7553011928858945e-16
outer loop
vertex -32.84147809382832 -8.799847533485712 -6.0
vertex -33.21008501447562 -5.999999999999995 -2.9999999999999973
vertex -34.0 0.0 -6.0
endloop
endfacet
facet normal -1.0 6.237776926952835e-17 4.487676194400983e-16
outer loop
vertex -34.0 0.0 -6.0
vertex -33.21008501447562 -5.999999999999995 -2.9999999999999973
vertex -34.0 0.0 -3.0
endloop
endfacet
facet normal -0.9914448613738105 0.13052619222005182 3.4351085864491606e-16
outer loop
vertex -33.21008501447562 6.0 -2.9999999999999973
vertex -34.0 0.0 -6.0
vertex -34.0 0.0 -3.0
endloop
endfacet
facet normal -1.0 6.237776926952835e-17 4.487676194400983e-16
outer loop
vertex -34.0 0.0 -6.0
vertex -33.21008501447562 6.0 -2.9999999999999973
vertex -32.84147809382832 8.799847533485702 -6.0
endloop
endfacet
facet normal -0.9659258262890683 0.25881904510252085 1.732375001515087e-16
outer loop
vertex -32.84147809382832 8.799847533485702 -6.0
vertex -33.21008501447562 6.0 -2.9999999999999973
vertex -32.84147809382832 8.799847533485702 -3.0
endloop
endfacet
facet normal -0.8660254037844389 0.49999999999999983 0.0
outer loop
vertex -29.444863728670914 16.999999999999996 -3.0
vertex -32.84147809382832 8.799847533485702 -6.0
vertex -32.84147809382832 8.799847533485702 -3.0
endloop
endfacet
facet normal -0.9659258262890683 0.25881904510252085 1.732375001515087e-16
outer loop
vertex -32.84147809382832 8.799847533485702 -6.0
vertex -29.444863728670914 16.999999999999996 -3.0
vertex -29.444863728670914 16.999999999999996 -6.0
endloop
endfacet
facet normal -0.7071067811865479 0.7071067811865471 0.0
outer loop
vertex -24.041630560342618 24.041630560342615 -3.0
vertex -29.444863728670914 16.999999999999996 -6.0
vertex -29.444863728670914 16.999999999999996 -3.0
endloop
endfacet
facet normal -0.8660254037844389 0.49999999999999983 0.0
outer loop
vertex -29.444863728670914 16.999999999999996 -6.0
vertex -24.041630560342618 24.041630560342615 -3.0
vertex -24.041630560342618 24.041630560342615 -6.0
endloop
endfacet
facet normal -0.7071067811865479 0.7071067811865471 0.0
outer loop
vertex -24.041630560342618 24.041630560342615 -3.0
vertex -17.00000000000001 29.444863728670903 -6.0
vertex -24.041630560342618 24.041630560342615 -6.0
endloop
endfacet
facet normal -0.5000000000000003 0.8660254037844386 0.0
outer loop
vertex -17.00000000000001 29.444863728670903 -6.0
vertex -24.041630560342618 24.041630560342615 -3.0
vertex -17.00000000000001 29.444863728670903 -3.0
endloop
endfacet
facet normal -0.5000000000000003 0.8660254037844386 0.0
outer loop
vertex -17.00000000000001 29.444863728670903 -3.0
vertex -8.799847533485714 32.84147809382832 -6.0
vertex -17.00000000000001 29.444863728670903 -6.0
endloop
endfacet
facet normal -0.2588190451025209 0.9659258262890682 0.0
outer loop
vertex -8.799847533485714 32.84147809382832 -6.0
vertex -17.00000000000001 29.444863728670903 -3.0
vertex -8.799847533485714 32.84147809382832 -3.0
endloop
endfacet
facet normal -0.2588190451025209 0.9659258262890682 0.0
outer loop
vertex -8.799847533485714 32.84147809382832 -3.0
vertex -5.639932965095795e-15 34.0 -6.0
vertex -8.799847533485714 32.84147809382832 -6.0
endloop
endfacet
facet normal -2.1386663749552568e-16 1.0 0.0
outer loop
vertex -5.639932965095795e-15 34.0 -6.0
vertex -8.799847533485714 32.84147809382832 -3.0
vertex -5.639932965095795e-15 34.0 -3.0
endloop
endfacet
facet normal -2.1386663749552568e-16 1.0 0.0
outer loop
vertex -5.639932965095795e-15 34.0 -3.0
vertex 8.79984753348569 32.84147809382832 -6.0
vertex -5.639932965095795e-15 34.0 -6.0
endloop
endfacet
facet normal 0.25881904510252035 0.9659258262890684 0.0
outer loop
vertex 8.79984753348569 32.84147809382832 -6.0
vertex -5.639932965095795e-15 34.0 -3.0
vertex 8.79984753348569 32.84147809382832 -3.0
endloop
endfacet
facet normal 0.25881904510252035 0.9659258262890684 0.0
outer loop
vertex 8.79984753348569 32.84147809382832 -3.0
vertex 16.999999999999996 29.444863728670928 -6.0
vertex 8.79984753348569 32.84147809382832 -6.0
endloop
endfacet
facet normal 0.4999999999999998 0.8660254037844388 0.0
outer loop
vertex 16.999999999999996 29.444863728670928 -6.0
vertex 8.79984753348569 32.84147809382832 -3.0
vertex 16.999999999999996 29.444863728670928 -3.0
endloop
endfacet
facet normal 0.4999999999999998 0.8660254037844388 0.0
outer loop
vertex 16.999999999999996 29.444863728670928 -3.0
vertex 24.041630560342604 24.041630560342625 -6.0
vertex 16.999999999999996 29.444863728670928 -6.0
endloop
endfacet
facet normal 0.7071067811865474 0.7071067811865477 0.0
outer loop
vertex 24.041630560342604 24.041630560342625 -6.0
vertex 16.999999999999996 29.444863728670928 -3.0
vertex 24.041630560342604 24.041630560342625 -3.0
endloop
endfacet
facet normal 0.7071067811865474 0.7071067811865477 0.0
outer loop
vertex 24.041630560342604 24.041630560342625 -6.0
vertex 29.444863728670903 17.00000000000002 -3.0
vertex 29.444863728670903 17.00000000000002 -6.0
endloop
endfacet
facet normal 0.8660254037844384 0.5000000000000006 0.0
outer loop
vertex 29.444863728670903 17.00000000000002 -3.0
vertex 24.041630560342604 24.041630560342625 -6.0
vertex 24.041630560342604 24.041630560342625 -3.0
endloop
endfacet
facet normal 0.8660254037844384 0.5000000000000006 0.0
outer loop
vertex 29.444863728670903 17.00000000000002 -6.0
vertex 32.84147809382832 8.799847533485735 -3.0
vertex 32.84147809382832 8.799847533485735 -6.0
endloop
endfacet
facet normal 0.9659258262890682 0.25881904510252146 4.2896904799421053e-16
outer loop
vertex 32.84147809382832 8.799847533485735 -3.0
vertex 29.444863728670903 17.00000000000002 -6.0
vertex 29.444863728670903 17.00000000000002 -3.0
endloop
endfacet
facet normal 0.9659258262890682 0.2588190451025214 4.289690479942105e-16
outer loop
vertex 32.84147809382832 8.799847533485735 -6.0
vertex 34.0 5.639932965095795e-15 -3.0
vertex 34.0 5.639932965095795e-15 -6.0
endloop
endfacet
facet normal 1.0 4.0099994530411073e-16 1.0806720247546496e-15
outer loop
vertex 34.0 5.639932965095795e-15 -3.0
vertex 32.84147809382832 8.799847533485735 -6.0
vertex 33.21008501447562 6.0 -3.000000000000001
endloop
endfacet
facet normal 0.9914448613738103 0.13052619222005218 8.505983166445507e-16
outer loop
vertex 33.21008501447562 6.0 -3.000000000000001
vertex 32.84147809382832 8.799847533485735 -6.0
vertex 32.84147809382832 8.799847533485735 -3.0
endloop
endfacet
facet normal 1.0 3.9208883540846383e-16 1.0806720247546496e-15
outer loop
vertex 34.0 5.639932965095795e-15 -6.0
vertex 32.84147809382832 -8.79984753348569 -3.0
vertex 32.84147809382832 -8.79984753348569 -6.0
endloop
endfacet
facet normal 0.9659258262890685 -0.2588190451025205 6.517029767604389e-16
outer loop
vertex 32.84147809382832 -8.79984753348569 -3.0
vertex 34.0 5.639932965095795e-15 -6.0
vertex 33.21008501447562 -5.999999999999995 -3.0000000000000013
endloop
endfacet
facet normal 0.9914448613738105 -0.13052619222005143 1.292255134902306e-15
outer loop
vertex 33.21008501447562 -5.999999999999995 -3.0000000000000013
vertex 34.0 5.639932965095795e-15 -6.0
vertex 34.0 5.639932965095795e-15 -3.0
endloop
endfacet
facet normal 0.9659258262890685 -0.25881904510252046 6.51702976760439e-16
outer loop
vertex 32.84147809382832 -8.79984753348569 -6.0
vertex 29.444863728670928 -16.999999999999975 -3.0
vertex 29.444863728670928 -16.999999999999975 -6.0
endloop
endfacet
facet normal 0.8660254037844392 -0.49999999999999956 0.0
outer loop
vertex 29.444863728670928 -16.999999999999975 -3.0
vertex 32.84147809382832 -8.79984753348569 -6.0
vertex 32.84147809382832 -8.79984753348569 -3.0
endloop
endfacet
facet normal 0.8660254037844392 -0.49999999999999956 0.0
outer loop
vertex 29.444863728670928 -16.999999999999975 -6.0
vertex 24.041630560342625 -24.041630560342615 -3.0
vertex 24.041630560342625 -24.041630560342615 -6.0
endloop
endfacet
facet normal 0.7071067811865479 -0.7071067811865472 0.0
outer loop
vertex 24.041630560342625 -24.041630560342615 -3.0
vertex 29.444863728670928 -16.999999999999975 -6.0
vertex 29.444863728670928 -16.999999999999975 -3.0
endloop
endfacet
facet normal 0.7071067811865479 -0.7071067811865472 0.0
outer loop
vertex 24.041630560342625 -24.041630560342615 -3.0
vertex 17.00000000000002 -29.444863728670903 -6.0
vertex 24.041630560342625 -24.041630560342615 -6.0
endloop
endfacet
facet normal 0.5000000000000004 -0.8660254037844385 0.0
outer loop
vertex 17.00000000000002 -29.444863728670903 -6.0
vertex 24.041630560342625 -24.041630560342615 -3.0
vertex 17.00000000000002 -29.444863728670903 -3.0
endloop
endfacet
facet normal 0.5000000000000004 -0.8660254037844385 0.0
outer loop
vertex 17.00000000000002 -29.444863728670903 -3.0
vertex 8.799847533485735 -32.84147809382832 -6.0
vertex 17.00000000000002 -29.444863728670903 -6.0
endloop
endfacet
facet normal 0.25881904510252135 -0.9659258262890682 5.28250698864416e-17
outer loop
vertex 8.799847533485735 -32.84147809382832 -6.0
vertex 17.00000000000002 -29.444863728670903 -3.0
vertex 8.799847533485735 -32.84147809382832 -3.0
endloop
endfacet
facet normal 0.25881904510252135 -0.9659258262890682 5.28250698864416e-17
outer loop
vertex 8.799847533485735 -32.84147809382832 -3.0
vertex 0.0 -34.0 -6.0
vertex 8.799847533485735 -32.84147809382832 -6.0
endloop
endfacet
facet normal 8.019998906082215e-17 -1.0 1.488706514981542e-16
outer loop
vertex 0.0 -34.0 -6.0
vertex 8.799847533485735 -32.84147809382832 -3.0
vertex 5.000000000000002 -33.34173751206302 -3.0
endloop
endfacet
facet normal 8.019998906082215e-17 -1.0 1.488706514981542e-16
outer loop
vertex 0.0 -34.0 -6.0
vertex 5.000000000000002 -33.34173751206302 -3.0
vertex 0.0 -34.0 1.9999999999999991
endloop
endfacet
facet normal 8.019998906082215e-17 -1.0 1.488706514981542e-16
outer loop
vertex 0.0 -34.0 1.9999999999999991
vertex 5.000000000000002 -33.34173751206302 -3.0
vertex 5.000000000000002 -33.34173751206302 1.9999999999999991
endloop
endfacet
facet normal 8.019998906082215e-17 -1.0 1.488706514981542e-16
outer loop
vertex 0.0 -34.0 -6.0
vertex -4.9999999999999964 -33.34173751206302 -3.0
vertex -8.799847533485707 -32.84147809382832 -6.0
endloop
endfacet
facet normal -0.13052619222005182 -0.9914448613738105 1.9044779669318267e-16
outer loop
vertex -4.9999999999999964 -33.34173751206302 -3.0
vertex 0.0 -34.0 -6.0
vertex 0.0 -34.0 1.9999999999999991
endloop
endfacet
facet normal -0.13052619222005182 -0.9914448613738105 1.9044779669318267e-16
outer loop
vertex -4.9999999999999964 -33.34173751206302 -3.0
vertex 0.0 -34.0 1.9999999999999991
vertex -4.9999999999999964 -33.34173751206302 1.9999999999999991
endloop
endfacet
facet normal -0.2588190451025208 -0.9659258262890683 9.604558161171253e-17
outer loop
vertex -8.799847533485707 -32.84147809382832 -3.0
vertex -8.799847533485707 -32.84147809382832 -6.0
vertex -4.9999999999999964 -33.34173751206302 -3.0
endloop
endfacet
facet normal 0.0 0.0 -1.0
outer loop
vertex -32.84147809382832 8.799847533485702 -6.0
vertex -32.84147809382832 -8.799847533485712 -6.0
vertex -34.0 0.0 -6.0
endloop
endfacet
facet normal 0.0 0.0 -1.0
outer loop
vertex -32.84147809382832 -8.799847533485712 -6.0
vertex -32.84147809382832 8.799847533485702 -6.0
vertex -29.444863728670914 16.999999999999996 -6.0
endloop
endfacet
facet normal 0.0 0.0 -1.0
outer loop
vertex -32.84147809382832 -8.799847533485712 -6.0
vertex -29.444863728670914 16.999999999999996 -6.0
vertex -29.444863728670914 -16.999999999999996 -6.0
endloop
endfacet
facet normal 0.0 0.0 -1.0
outer loop
vertex -29.444863728670914 -16.999999999999996 -6.0
vertex -29.444863728670914 16.999999999999996 -6.0
vertex -24.041630560342618 24.041630560342615 -6.0
endloop
endfacet
facet normal 0.0 0.0 -1.0
outer loop
vertex -29.444863728670914 -16.999999999999996 -6.0
vertex -24.041630560342618 24.041630560342615 -6.0
vertex -24.041630560342615 -24.041630560342615 -6.0
endloop
endfacet
facet normal 0.0 0.0 -1.0
outer loop
vertex -24.041630560342615 -24.041630560342615 -6.0
vertex -24.041630560342618 24.041630560342615 -6.0
vertex -17.00000000000001 29.444863728670903 -6.0
endloop
endfacet
facet normal 0.0 0.0 -1.0
outer loop
vertex -24.041630560342615 -24.041630560342615 -6.0
vertex -17.00000000000001 29.444863728670903 -6.0
vertex -16.999999999999996 -29.444863728670914 -6.0
endloop
endfacet
facet normal 0.0 0.0 -1.0
outer loop
vertex -16.999999999999996 -29.444863728670914 -6.0
vertex -17.00000000000001 29.444863728670903 -6.0
vertex -8.799847533485714 32.84147809382832 -6.0
endloop
endfacet
facet normal 0.0 0.0 -1.0
outer loop
vertex -16.999999999999996 -29.444863728670914 -6.0
vertex -8.799847533485714 32.84147809382832 -6.0
vertex -8.799847533485707 -32.84147809382832 -6.0
endloop
endfacet
facet normal 0.0 0.0 -1.0
outer loop
vertex -8.799847533485707 -32.84147809382832 -6.0
vertex -8.799847533485714 32.84147809382832 -6.0
vertex -1.4604011684121032 28.88910130106541 -6.0
endloop
endfacet
facet normal 0.0 0.0 -1.0
outer loop
vertex -1.4604011684121032 28.88910130106541 -6.0
vertex -8.799847533485714 32.84147809382832 -6.0
vertex -5.639932965095795e-15 34.0 -6.0
endloop
endfacet
facet normal 0.0 0.0 -1.0
outer loop
vertex -8.799847533485707 -32.84147809382832 -6.0
vertex -1.4604011684121032 28.88910130106541 -6.0
vertex -1.4992553190063316 28.499455132496042 -6.0
endloop
endfacet
facet normal 0.0 0.0 -1.0
outer loop
vertex -1.4604011684121032 28.88910130106541 -6.0
vertex -5.639932965095795e-15 34.0 -6.0
vertex -1.322023091617626 29.25541440424609 -6.0
endloop
endfacet
facet normal 0.0 0.0 -1.0
outer loop
vertex -1.322023091617626 29.25541440424609 -6.0
vertex -5.639932965095795e-15 34.0 -6.0
vertex -1.093551325875872 29.573430809417324 -6.0
endloop
endfacet
facet normal 0.0 0.0 -1.0
outer loop
vertex -1.093551325875872 29.573430809417324 -6.0
vertex -5.639932965095795e-15 34.0 -6.0
vertex -0.7905558444546827 29.821478224113655 -6.0
endloop
endfacet
facet normal 0.0 0.0 -1.0
outer loop
vertex -0.7905558444546827 29.821478224113655 -6.0
vertex -5.639932965095795e-15 34.0 -6.0
vertex -0.43368528868921635 29.98265262694128 -6.0
endloop
endfacet
facet normal 0.0 0.0 -1.0
outer loop
vertex -0.43368528868921635 29.98265262694128 -6.0
vertex -5.639932965095795e-15 34.0 -6.0
vertex -0.047259797198403716 30.045970248700776 -6.0
endloop
endfacet
facet normal 0.0 0.0 -1.0
outer loop
vertex -0.047259797198403716 30.045970248700776 -6.0
vertex -5.639932965095795e-15 34.0 -6.0
vertex -5.639932965095795e-15 30.04125766732434 -6.0
endloop
endfacet
facet normal 0.0 0.0 -1.0
outer loop
vertex -5.639932965095795e-15 30.04125766732434 -6.0
vertex -5.639932965095795e-15 34.0 -6.0
vertex 8.79984753348569 32.84147809382832 -6.0
endloop
endfacet
facet normal 0.0 0.0 -1.0
outer loop
vertex -5.639932965095795e-15 30.04125766732434 -6.0
vertex 8.79984753348569 32.84147809382832 -6.0
vertex 0.34238637137097044 30.007116098106543 -6.0
endloop
endfacet
facet normal 0.0 0.0 -1.0
outer loop
vertex 0.34238637137097044 30.007116098106543 -6.0
vertex 8.79984753348569 32.84147809382832 -6.0
vertex 0.7086994745516488 29.868738021312065 -6.0
endloop
endfacet
facet normal 0.0 0.0 -1.0
outer loop
vertex 0.7086994745516488 29.868738021312065 -6.0
vertex 8.79984753348569 32.84147809382832 -6.0
vertex 1.0267158797228813 29.6402662555703 -6.0
endloop
endfacet
facet normal 0.0 0.0 -1.0
outer loop
vertex 1.0267158797228813 29.6402662555703 -6.0
vertex 8.79984753348569 32.84147809382832 -6.0
vertex 1.2747632944192224 29.337270774149115 -6.0
endloop
endfacet
facet normal 0.0 0.0 -1.0
outer loop
vertex 1.2747632944192224 29.337270774149115 -6.0
vertex 8.79984753348569 32.84147809382832 -6.0
vertex 1.435937697246837 28.980400218383643 -6.0
endloop
endfacet
facet normal 0.0 0.0 -1.0
outer loop
vertex 1.435937697246837 28.980400218383643 -6.0
vertex 8.79984753348569 32.84147809382832 -6.0
vertex 1.499255319006326 28.59397472689284 -6.0
endloop
endfacet
facet normal 0.0 0.0 -1.0
outer loop
vertex -1.4992553190063316 28.499455132496042 -6.0
vertex 0.0 -34.0 -6.0
vertex -8.799847533485707 -32.84147809382832 -6.0
endloop
endfacet
facet normal 0.0 0.0 -1.0
outer loop
vertex 0.0 -34.0 -6.0
vertex -1.4992553190063316 28.499455132496042 -6.0
vertex -1.4359376972468425 28.113029641005234 -6.0
endloop
endfacet
facet normal 0.0 0.0 -1.0
outer loop
vertex 0.0 -34.0 -6.0
vertex -1.4359376972468425 28.113029641005234 -6.0
vertex -1.274763294419228 27.756159085239762 -6.0
endloop
endfacet
facet normal 0.0 0.0 -1.0
outer loop
vertex 0.0 -34.0 -6.0
vertex -1.274763294419228 27.756159085239762 -6.0
vertex -1.0267158797228926 27.453163603818577 -6.0
endloop
endfacet
facet normal 0.0 0.0 -1.0
outer loop
vertex 0.0 -34.0 -6.0
vertex -1.0267158797228926 27.453163603818577 -6.0
vertex -0.7086994745516545 27.22469183807681 -6.0
endloop
endfacet
facet normal 0.0 0.0 -1.0
outer loop
vertex 0.0 -34.0 -6.0
vertex -0.7086994745516545 27.22469183807681 -6.0
vertex -0.3423863713709817 27.086313761282337 -6.0
endloop
endfacet
facet normal 0.0 0.0 -1.0
outer loop
vertex 0.0 -34.0 -6.0
vertex -0.3423863713709817 27.086313761282337 -6.0
vertex -5.639932965095795e-15 27.052172192064535 -6.0
endloop
endfacet
facet normal 0.0 0.0 -1.0
outer loop
vertex 0.0 -34.0 -6.0
vertex -5.639932965095795e-15 27.052172192064535 -6.0
vertex 0.047259797198398075 27.0474596106881 -6.0
endloop
endfacet
facet normal 0.0 0.0 -1.0
outer loop
vertex 0.0 -34.0 -6.0
vertex 0.047259797198398075 27.0474596106881 -6.0
vertex 8.799847533485735 -32.84147809382832 -6.0
endloop
endfacet
facet normal 0.0 0.0 -1.0
outer loop
vertex 8.799847533485735 -32.84147809382832 -6.0
vertex 0.047259797198398075 27.0474596106881 -6.0
vertex 0.4336852886892051 27.110777232447596 -6.0
endloop
endfacet
facet normal 0.0 0.0 -1.0
outer loop
vertex 8.799847533485735 -32.84147809382832 -6.0
vertex 0.4336852886892051 27.110777232447596 -6.0
vertex 0.7905558444546771 27.271951635275222 -6.0
endloop
endfacet
facet normal 0.0 0.0 -1.0
outer loop
vertex 8.799847533485735 -32.84147809382832 -6.0
vertex 0.7905558444546771 27.271951635275222 -6.0
vertex 1.093551325875861 27.519999049971553 -6.0
endloop
endfacet
facet normal 0.0 0.0 -1.0
outer loop
vertex 8.799847533485735 -32.84147809382832 -6.0
vertex 1.093551325875861 27.519999049971553 -6.0
vertex 1.3220230916176205 27.83801545514279 -6.0
endloop
endfacet
facet normal 0.0 0.0 -1.0
outer loop
vertex 8.799847533485735 -32.84147809382832 -6.0
vertex 1.3220230916176205 27.83801545514279 -6.0
vertex 1.4604011684120974 28.204328558323468 -6.0
endloop
endfacet
facet normal 0.0 0.0 -1.0
outer loop
vertex 8.799847533485735 -32.84147809382832 -6.0
vertex 1.4604011684120974 28.204328558323468 -6.0
vertex 1.499255319006326 28.59397472689284 -6.0
endloop
endfacet
facet normal 0.0 0.0 -1.0
outer loop
vertex 8.799847533485735 -32.84147809382832 -6.0
vertex 1.499255319006326 28.59397472689284 -6.0
vertex 8.79984753348569 32.84147809382832 -6.0
endloop
endfacet
facet normal 0.0 0.0 -1.0
outer loop
vertex 8.799847533485735 -32.84147809382832 -6.0
vertex 8.79984753348569 32.84147809382832 -6.0
vertex 16.999999999999996 29.444863728670928 -6.0
endloop
endfacet
facet normal 0.0 0.0 -1.0
outer loop
vertex 8.799847533485735 -32.84147809382832 -6.0
vertex 16.999999999999996 29.444863728670928 -6.0
vertex 17.00000000000002 -29.444863728670903 -6.0
endloop
endfacet
facet normal 0.0 0.0 -1.0
outer loop
vertex 17.00000000000002 -29.444863728670903 -6.0
vertex 16.999999999999996 29.444863728670928 -6.0
vertex 24.041630560342604 24.041630560342625 -6.0
endloop
endfacet
facet normal 0.0 0.0 -1.0
outer loop
vertex 17.00000000000002 -29.444863728670903 -6.0
vertex 24.041630560342604 24.041630560342625 -6.0
vertex 24.041630560342625 -24.041630560342615 -6.0
endloop
endfacet
facet normal 0.0 0.0 -1.0
outer loop
vertex 24.041630560342625 -24.041630560342615 -6.0
vertex 24.041630560342604 24.041630560342625 -6.0
vertex 29.444863728670903 17.00000000000002 -6.0
endloop
endfacet
facet normal 0.0 0.0 -1.0
outer loop
vertex 24.041630560342625 -24.041630560342615 -6.0
vertex 29.444863728670903 17.00000000000002 -6.0
vertex 29.444863728670928 -16.999999999999975 -6.0
endloop
endfacet
facet normal 0.0 0.0 -1.0
outer loop
vertex 29.444863728670928 -16.999999999999975 -6.0
vertex 29.444863728670903 17.00000000000002 -6.0
vertex 32.84147809382832 8.799847533485735 -6.0
endloop
endfacet
facet normal 0.0 0.0 -1.0
outer loop
vertex 29.444863728670928 -16.999999999999975 -6.0
vertex 32.84147809382832 8.799847533485735 -6.0
vertex 32.84147809382832 -8.79984753348569 -6.0
endloop
endfacet
facet normal 0.0 0.0 -1.0
outer loop
vertex 32.84147809382832 -8.79984753348569 -6.0
vertex 32.84147809382832 8.799847533485735 -6.0
vertex 34.0 5.639932965095795e-15 -6.0
endloop
endfacet
facet normal -9.624449484764255e-18 -5.910922601645398e-18 -1.0
outer loop
vertex 8.79984753348569 32.84147809382832 -3.0
vertex -5.639932965095795e-15 30.04125766732434 -3.0
vertex -5.639932965095795e-15 34.0 -3.0
endloop
endfacet
facet normal -9.624449484764255e-18 -5.910922601645398e-18 -1.0
outer loop
vertex -5.639932965095795e-15 30.04125766732434 -3.0
vertex 8.79984753348569 32.84147809382832 -3.0
vertex 0.34238637137097044 30.007116098106543 -3.0
endloop
endfacet
facet normal -9.624449484764255e-18 -5.910922601645398e-18 -1.0
outer loop
vertex 0.34238637137097044 30.007116098106543 -3.0
vertex 8.79984753348569 32.84147809382832 -3.0
vertex 0.7086994745516488 29.868738021312065 -3.0
endloop
endfacet
facet normal -9.624449484764255e-18 -5.910922601645398e-18 -1.0
outer loop
vertex 0.7086994745516488 29.868738021312065 -3.0
vertex 8.79984753348569 32.84147809382832 -3.0
vertex 1.0267158797228813 29.6402662555703 -3.0
endloop
endfacet
facet normal -9.624449484764255e-18 -5.910922601645398e-18 -1.0
outer loop
vertex 1.0267158797228813 29.6402662555703 -3.0
vertex 8.79984753348569 32.84147809382832 -3.0
vertex 1.2747632944192224 29.337270774149115 -3.0
endloop
endfacet
facet normal -9.624449484764255e-18 -5.910922601645398e-18 -1.0
outer loop
vertex 1.2747632944192224 29.337270774149115 -3.0
vertex 8.79984753348569 32.84147809382832 -3.0
vertex 1.435937697246837 28.980400218383643 -3.0
endloop
endfacet
facet normal -9.624449484764255e-18 -5.910922601645398e-18 -1.0
outer loop
vertex 1.435937697246837 28.980400218383643 -3.0
vertex 8.79984753348569 32.84147809382832 -3.0
vertex 1.499255319006326 28.59397472689284 -3.0
endloop
endfacet
facet normal -9.624449484764255e-18 -5.910922601645398e-18 -1.0
outer loop
vertex 34.0 5.639932965095795e-15 -3.0
vertex 33.21008501447562 5.639932965095795e-15 -3.000000000000002
vertex 33.21008501447562 6.0 -3.000000000000001
endloop
endfacet
facet normal -9.624449484764255e-18 -5.910922601645398e-18 -1.0
outer loop
vertex 0.047259797198398075 27.0474596106881 -3.0
vertex 0.0 6.0 -2.9999999999999996
vertex -5.639932965095795e-15 27.052172192064535 -3.0
endloop
endfacet
facet normal -9.624449484764255e-18 -5.910922601645398e-18 -1.0
outer loop
vertex 0.0 6.0 -2.9999999999999996
vertex 0.047259797198398075 27.0474596106881 -3.0
vertex 33.21008501447562 6.0 -3.000000000000001
endloop
endfacet
facet normal -9.624449484764255e-18 -5.910922601645398e-18 -1.0
outer loop
vertex 33.21008501447562 6.0 -3.000000000000001
vertex 0.047259797198398075 27.0474596106881 -3.0
vertex 0.4336852886892051 27.110777232447596 -3.0
endloop
endfacet
facet normal -9.624449484764255e-18 -5.910922601645398e-18 -1.0
outer loop
vertex 33.21008501447562 6.0 -3.000000000000001
vertex 0.4336852886892051 27.110777232447596 -3.0
vertex 0.7905558444546771 27.271951635275222 -3.0
endloop
endfacet
facet normal -9.624449484764255e-18 -5.910922601645398e-18 -1.0
outer loop
vertex 33.21008501447562 6.0 -3.000000000000001
vertex 0.7905558444546771 27.271951635275222 -3.0
vertex 1.093551325875861 27.519999049971553 -3.0
endloop
endfacet
facet normal -9.624449484764255e-18 -5.910922601645398e-18 -1.0
outer loop
vertex 33.21008501447562 6.0 -3.000000000000001
vertex 1.093551325875861 27.519999049971553 -3.0
vertex 1.3220230916176205 27.83801545514279 -3.0
endloop
endfacet
facet normal -9.624449484764255e-18 -5.910922601645398e-18 -1.0
outer loop
vertex 33.21008501447562 6.0 -3.000000000000001
vertex 1.3220230916176205 27.83801545514279 -3.0
vertex 1.4604011684120974 28.204328558323468 -3.0
endloop
endfacet
facet normal -9.624449484764255e-18 -5.910922601645398e-18 -1.0
outer loop
vertex 33.21008501447562 6.0 -3.000000000000001
vertex 1.4604011684120974 28.204328558323468 -3.0
vertex 1.499255319006326 28.59397472689284 -3.0
endloop
endfacet
facet normal -9.624449484764255e-18 -5.910922601645398e-18 -1.0
outer loop
vertex 33.21008501447562 6.0 -3.000000000000001
vertex 1.499255319006326 28.59397472689284 -3.0
vertex 8.79984753348569 32.84147809382832 -3.0
endloop
endfacet
facet normal -9.624449484764255e-18 -5.910922601645398e-18 -1.0
outer loop
vertex 33.21008501447562 6.0 -3.000000000000001
vertex 8.79984753348569 32.84147809382832 -3.0
vertex 16.999999999999996 29.444863728670928 -3.0
endloop
endfacet
facet normal -9.624449484764255e-18 -5.910922601645398e-18 -1.0
outer loop
vertex 33.21008501447562 6.0 -3.000000000000001
vertex 16.999999999999996 29.444863728670928 -3.0
vertex 24.041630560342604 24.041630560342625 -3.0
endloop
endfacet
facet normal -9.624449484764255e-18 -5.910922601645398e-18 -1.0
outer loop
vertex 33.21008501447562 6.0 -3.000000000000001
vertex 24.041630560342604 24.041630560342625 -3.0
vertex 29.444863728670903 17.00000000000002 -3.0
endloop
endfacet
facet normal -9.624449484764255e-18 -5.910922601645398e-18 -1.0
outer loop
vertex 33.21008501447562 6.0 -3.000000000000001
vertex 29.444863728670903 17.00000000000002 -3.0
vertex 32.84147809382832 8.799847533485735 -3.0
endloop
endfacet
facet normal 7.029581700568956e-18 -0.8660254037844386 0.5000000000000003
outer loop
vertex 33.21008501447562 -5.196152422706629 0.0
vertex -33.21008501447564 -5.795554957734404 -1.4470857293848733
vertex 33.21008501447562 -5.795554957734404 -1.4470857293848776
endloop
endfacet
facet normal 7.080222545282204e-18 -0.9659258262890685 0.2588190451025204
outer loop
vertex -33.21008501447564 -5.795554957734404 -1.4470857293848733
vertex 33.21008501447562 -5.196152422706629 0.0
vertex -33.21008501447564 -5.196152422706629 1.4099832412739487e-15
endloop
endfacet
facet normal 3.671344188253951e-20 0.5000000000000001 0.8660254037844386
outer loop
vertex 33.21008501447562 3.0 2.1961524227066334
vertex -33.21008501447564 4.242640687119285 1.2426406871192872
vertex -33.21008501447564 3.0 2.1961524227066334
endloop
endfacet
facet normal 2.7371080719447087e-18 0.7071067811865467 0.7071067811865485
outer loop
vertex -33.21008501447564 4.242640687119285 1.2426406871192872
vertex 33.21008501447562 3.0 2.1961524227066334
vertex 33.21008501447562 4.242640687119285 1.2426406871192872
endloop
endfacet
facet normal 7.815649708875449e-18 0.8660254037844377 0.5000000000000018
outer loop
vertex -33.21008501447564 5.196152422706635 4.229949723821846e-15
vertex 33.21008501447562 4.242640687119285 1.2426406871192872
vertex 33.21008501447562 5.196152422706635 1.4099832412739487e-15
endloop
endfacet
facet normal 2.7371080719447087e-18 0.7071067811865467 0.7071067811865485
outer loop
vertex 33.21008501447562 4.242640687119285 1.2426406871192872
vertex -33.21008501447564 5.196152422706635 4.229949723821846e-15
vertex -33.21008501447564 4.242640687119285 1.2426406871192872
endloop
endfacet
facet normal 2.5965068635351797e-17 -0.49999999999999967 0.8660254037844389
outer loop
vertex 33.21008501447562 0.7500000000000042 -2.799038105676661
vertex -33.21008501447564 1.0606601717798239 -2.560660171779821
vertex -33.21008501447564 0.7500000000000042 -2.7990381056766576
endloop
endfacet
facet normal 2.091672851939599e-17 -0.7071067811865472 0.7071067811865478
outer loop
vertex -33.21008501447564 1.0606601717798239 -2.560660171779821
vertex 33.21008501447562 0.7500000000000042 -2.799038105676661
vertex 33.21008501447562 1.0606601717798239 -2.5606601717798245
endloop
endfacet
facet normal 2.4648529454035366e-20 0.25881904510252035 0.9659258262890684
outer loop
vertex 33.21008501447562 1.5529142706151253 2.795554957734411
vertex -33.21008501447564 3.0 2.1961524227066334
vertex -33.21008501447564 1.5529142706151253 2.795554957734411
endloop
endfacet
facet normal 3.671344188253951e-20 0.5000000000000001 0.8660254037844386
outer loop
vertex -33.21008501447564 3.0 2.1961524227066334
vertex 33.21008501447562 1.5529142706151253 2.795554957734411
vertex 33.21008501447562 3.0 2.1961524227066334
endloop
endfacet
facet normal 3.2770219909140016e-17 1.149533176538451e-15 1.0
outer loop
vertex 33.21008501447562 5.639932965095795e-15 -3.000000000000002
vertex -33.21008501447564 0.38822856765378416 -2.948888739433601
vertex -33.21008501447564 5.639932965095795e-15 -2.9999999999999982
endloop
endfacet
facet normal 3.1697953925776435e-17 -0.2588190451025192 0.9659258262890688
outer loop
vertex -33.21008501447564 0.38822856765378416 -2.948888739433601
vertex 33.21008501447562 5.639932965095795e-15 -3.000000000000002
vertex 33.21008501447562 0.38822856765378416 -2.948888739433605
endloop
endfacet
facet normal -5.505549814485442e-18 -0.9659258262890685 -0.2588190451025199
outer loop
vertex 33.21008501447562 1.448888739433608 -1.1117714323462216
vertex -33.21008501447564 1.5000000000000084 -1.5000000000000007
vertex 33.21008501447562 1.5000000000000084 -1.500000000000005
endloop
endfacet
facet normal 5.776172026775188e-19 -1.0 1.1584442864340985e-16
outer loop
vertex -33.21008501447564 1.5000000000000084 -1.5000000000000007
vertex 33.21008501447562 1.448888739433608 -1.1117714323462216
vertex -33.21008501447564 1.448888739433608 -1.1117714323462193
endloop
endfacet
facet normal 7.080222545282193e-18 -0.9659258262890685 0.2588190451025199
outer loop
vertex 33.21008501447562 -5.795554957734404 -1.4470857293848776
vertex 0.0 -5.999999999999995 -2.9999999999999996
vertex 33.21008501447562 -5.999999999999995 -3.0000000000000013
endloop
endfacet
facet normal 4.349077819797384e-18 -0.9914448613738105 0.13052619222005182
outer loop
vertex 0.0 -5.999999999999995 -2.9999999999999996
vertex 33.21008501447562 -5.795554957734404 -1.4470857293848776
vertex -33.21008501447562 -5.999999999999995 -2.9999999999999973
endloop
endfacet
facet normal 4.349077819797384e-18 -0.9914448613738105 0.13052619222005182
outer loop
vertex -33.21008501447562 -5.999999999999995 -2.9999999999999973
vertex 33.21008501447562 -5.795554957734404 -1.4470857293848776
vertex -33.21008501447564 -5.795554957734404 -1.4470857293848733
endloop
endfacet
facet normal 3.8495215837395716e-18 0.9914448613738109 0.1305261922200482
outer loop
vertex 0.0 6.0 -2.9999999999999996
vertex 33.21008501447562 5.795554957734415 -1.4470857293848762
vertex 33.21008501447562 6.0 -3.000000000000001
endloop
endfacet
facet normal 7.056624555682333e-18 0.9659258262890685 0.2588190451025197
outer loop
vertex 33.21008501447562 5.795554957734415 -1.4470857293848762
vertex 0.0 6.0 -2.9999999999999996
vertex -33.21008501447562 6.0 -2.9999999999999973
endloop
endfacet
facet normal 7.056624555682333e-18 0.9659258262890685 0.2588190451025197
outer loop
vertex 33.21008501447562 5.795554957734415 -1.4470857293848762
vertex -33.21008501447562 6.0 -2.9999999999999973
vertex -33.21008501447564 5.795554957734415 -1.447085729384872
endloop
endfacet
facet normal 1.0 5.70050965067639e-31 1.9573206923151637e-31
outer loop
vertex 33.21008501447562 -5.999999999999995 -3.0000000000000013
vertex 33.21008501447562 -0.3882285676537785 -2.9488887394336034
vertex 33.21008501447562 -5.795554957734404 -1.4470857293848776
endloop
endfacet
facet normal 1.0 5.70050965067639e-31 1.9573206923151637e-31
outer loop
vertex 33.21008501447562 -0.3882285676537785 -2.9488887394336034
vertex 33.21008501447562 -5.999999999999995 -3.0000000000000013
vertex 33.21008501447562 5.639932965095795e-15 -3.000000000000002
endloop
endfacet
facet normal 1.0 5.70050965067639e-31 1.9573206923151637e-31
outer loop
vertex 33.21008501447562 -5.795554957734404 -1.4470857293848776
vertex 33.21008501447562 -0.3882285676537785 -2.9488887394336034
vertex 33.21008501447562 -0.7499999999999987 -2.799038105676658
endloop
endfacet
facet normal 1.0 5.70050965067639e-31 1.9573206923151637e-31
outer loop
vertex 33.21008501447562 -5.795554957734404 -1.4470857293848776
vertex 33.21008501447562 -0.7499999999999987 -2.799038105676658
vertex 33.21008501447562 -5.196152422706629 0.0
endloop
endfacet
facet normal 1.0 5.70050965067639e-31 1.9573206923151637e-31
outer loop
vertex 33.21008501447562 -5.196152422706629 0.0
vertex 33.21008501447562 -0.7499999999999987 -2.799038105676658
vertex 33.21008501447562 -1.0606601717798183 -2.560660171779821
endloop
endfacet
facet normal 1.0 5.70050965067639e-31 1.9573206923151637e-31
outer loop
vertex 33.21008501447562 -5.196152422706629 0.0
vertex 33.21008501447562 -1.0606601717798183 -2.560660171779821
vertex 33.21008501447562 -4.2426406871192786 1.2426406871192843
endloop
endfacet
facet normal 1.0 5.70050965067639e-31 1.9573206923151637e-31
outer loop
vertex 33.21008501447562 -4.2426406871192786 1.2426406871192843
vertex 33.21008501447562 -1.0606601717798183 -2.560660171779821
vertex 33.21008501447562 -1.299038105676656 -2.2499999999999987
endloop
endfacet
facet normal 1.0 5.70050965067639e-31 1.9573206923151637e-31
outer loop
vertex 33.21008501447562 -4.2426406871192786 1.2426406871192843
vertex 33.21008501447562 -1.299038105676656 -2.2499999999999987
vertex 33.21008501447562 -1.4488887394335968 -1.88822856765378
endloop
endfacet
facet normal 1.0 5.70050965067639e-31 1.9573206923151637e-31
outer loop
vertex 33.21008501447562 -4.2426406871192786 1.2426406871192843
vertex 33.21008501447562 -1.4488887394335968 -1.88822856765378
vertex 33.21008501447562 -3.0 2.196152422706632
endloop
endfacet
facet normal 1.0 5.70050965067639e-31 1.9573206923151637e-31
outer loop
vertex 33.21008501447562 -3.0 2.196152422706632
vertex 33.21008501447562 -1.4488887394335968 -1.88822856765378
vertex 33.21008501447562 -1.4999999999999916 -1.4999999999999993
endloop
endfacet
facet normal 1.0 5.70050965067639e-31 1.9573206923151637e-31
outer loop
vertex 33.21008501447562 -3.0 2.196152422706632
vertex 33.21008501447562 -1.4999999999999916 -1.4999999999999993
vertex 33.21008501447562 -1.5529142706151253 2.7955549577344097
endloop
endfacet
facet normal 1.0 5.70050965067639e-31 1.9573206923151637e-31
outer loop
vertex 33.21008501447562 6.0 -3.000000000000001
vertex 33.21008501447562 0.38822856765378416 -2.948888739433605
vertex 33.21008501447562 5.639932965095795e-15 -3.000000000000002
endloop
endfacet
facet normal 1.0 5.70050965067639e-31 1.9573206923151637e-31
outer loop
vertex 33.21008501447562 0.38822856765378416 -2.948888739433605
vertex 33.21008501447562 6.0 -3.000000000000001
vertex 33.21008501447562 0.7500000000000042 -2.799038105676661
endloop
endfacet
facet normal 1.0 5.70050965067639e-31 1.9573206923151637e-31
outer loop
vertex 33.21008501447562 0.7500000000000042 -2.799038105676661
vertex 33.21008501447562 6.0 -3.000000000000001
vertex 33.21008501447562 1.0606601717798239 -2.5606601717798245
endloop
endfacet
facet normal 1.0 5.70050965067639e-31 1.9573206923151637e-31
outer loop
vertex 33.21008501447562 1.0606601717798239 -2.5606601717798245
vertex 33.21008501447562 6.0 -3.000000000000001
vertex 33.21008501447562 1.2990381056766616 -2.2500000000000044
endloop
endfacet
facet normal 1.0 5.70050965067639e-31 1.9573206923151637e-31
outer loop
vertex 33.21008501447562 1.2990381056766616 -2.2500000000000044
vertex 33.21008501447562 6.0 -3.000000000000001
vertex 33.21008501447562 1.448888739433608 -1.8882285676537864
endloop
endfacet
facet normal 1.0 5.70050965067639e-31 1.9573206923151637e-31
outer loop
vertex 33.21008501447562 1.448888739433608 -1.8882285676537864
vertex 33.21008501447562 6.0 -3.000000000000001
vertex 33.21008501447562 1.5000000000000084 -1.500000000000005
endloop
endfacet
facet normal 1.0 5.70050965067639e-31 1.9573206923151637e-31
outer loop
vertex 33.21008501447562 1.5000000000000084 -1.500000000000005
vertex 33.21008501447562 6.0 -3.000000000000001
vertex 33.21008501447562 1.5529142706151253 2.795554957734411
endloop
endfacet
facet normal 1.0 5.70050965067639e-31 1.9573206923151637e-31
outer loop
vertex 33.21008501447562 1.5529142706151253 2.795554957734411
vertex 33.21008501447562 6.0 -3.000000000000001
vertex 33.21008501447562 3.0 2.1961524227066334
endloop
endfacet
facet normal 1.0 5.70050965067639e-31 1.9573206923151637e-31
outer loop
vertex 33.21008501447562 3.0 2.1961524227066334
vertex 33.21008501447562 6.0 -3.000000000000001
vertex 33.21008501447562 4.242640687119285 1.2426406871192872
endloop
endfacet
facet normal 1.0 5.70050965067639e-31 1.9573206923151637e-31
outer loop
vertex 33.21008501447562 4.242640687119285 1.2426406871192872
vertex 33.21008501447562 6.0 -3.000000000000001
vertex 33.21008501447562 5.196152422706635 1.4099832412739487e-15
endloop
endfacet
facet normal 1.0 5.70050965067639e-31 1.9573206923151637e-31
outer loop
vertex 33.21008501447562 5.196152422706635 1.4099832412739487e-15
vertex 33.21008501447562 6.0 -3.000000000000001
vertex 33.21008501447562 5.795554957734415 -1.4470857293848762
endloop
endfacet
facet normal 1.0 5.70050965067639e-31 1.9573206923151637e-31
outer loop
vertex 33.21008501447562 -1.5529142706151253 2.7955549577344097
vertex 33.21008501447562 -1.4488887394335968 -1.111771432346216
vertex 33.21008501447562 0.0 3.0
endloop
endfacet
facet normal 1.0 5.70050965067639e-31 1.9573206923151637e-31
outer loop
vertex 33.21008501447562 -1.4488887394335968 -1.111771432346216
vertex 33.21008501447562 -1.5529142706151253 2.7955549577344097
vertex 33.21008501447562 -1.4999999999999916 -1.4999999999999993
endloop
endfacet
facet normal 1.0 5.70050965067639e-31 1.9573206923151637e-31
outer loop
vertex 33.21008501447562 0.0 3.0
vertex 33.21008501447562 -1.4488887394335968 -1.111771432346216
vertex 33.21008501447562 -1.2990381056766502 -0.7499999999999972
endloop
endfacet
facet normal 1.0 5.70050965067639e-31 1.9573206923151637e-31
outer loop
vertex 33.21008501447562 0.0 3.0
vertex 33.21008501447562 -1.2990381056766502 -0.7499999999999972
vertex 33.21008501447562 -1.0606601717798128 -0.43933982822017614
endloop
endfacet
facet normal 1.0 5.70050965067639e-31 1.9573206923151637e-31
outer loop
vertex 33.21008501447562 0.0 3.0
vertex 33.21008501447562 -1.0606601717798128 -0.43933982822017614
vertex 33.21008501447562 -0.749999999999993 -0.2009618943233406
endloop
endfacet
facet normal 1.0 5.70050965067639e-31 1.9573206923151637e-31
outer loop
vertex 33.21008501447562 0.0 3.0
vertex 33.21008501447562 -0.749999999999993 -0.2009618943233406
vertex 33.21008501447562 -0.3882285676537729 -0.05111126056639692
endloop
endfacet
facet normal 1.0 5.70050965067639e-31 1.9573206923151637e-31
outer loop
vertex 33.21008501447562 0.0 3.0
vertex 33.21008501447562 -0.3882285676537729 -0.05111126056639692
vertex 33.21008501447562 1.127986593019159e-14 0.0
endloop
endfacet
facet normal 1.0 5.70050965067639e-31 1.9573206923151637e-31
outer loop
vertex 33.21008501447562 0.0 3.0
vertex 33.21008501447562 1.127986593019159e-14 0.0
vertex 33.21008501447562 1.5529142706151253 2.795554957734411
endloop
endfacet
facet normal 1.0 5.70050965067639e-31 1.9573206923151637e-31
outer loop
vertex 33.21008501447562 1.5529142706151253 2.795554957734411
vertex 33.21008501447562 1.127986593019159e-14 0.0
vertex 33.21008501447562 0.38822856765378977 -0.05111126056639834
endloop
endfacet
facet normal 1.0 5.70050965067639e-31 1.9573206923151637e-31
outer loop
vertex 33.21008501447562 1.5529142706151253 2.795554957734411
vertex 33.21008501447562 0.38822856765378977 -0.05111126056639834
vertex 33.21008501447562 0.7500000000000099 -0.20096189432334344
endloop
endfacet
facet normal 1.0 5.70050965067639e-31 1.9573206923151637e-31
outer loop
vertex 33.21008501447562 1.5529142706151253 2.795554957734411
vertex 33.21008501447562 0.7500000000000099 -0.20096189432334344
vertex 33.21008501447562 1.0606601717798296 -0.43933982822018036
endloop
endfacet
facet normal 1.0 5.70050965067639e-31 1.9573206923151637e-31
outer loop
vertex 33.21008501447562 1.5529142706151253 2.795554957734411
vertex 33.21008501447562 1.0606601717798296 -0.43933982822018036
vertex 33.21008501447562 1.299038105676667 -0.7500000000000029
endloop
endfacet
facet normal 1.0 5.70050965067639e-31 1.9573206923151637e-31
outer loop
vertex 33.21008501447562 1.5529142706151253 2.795554957734411
vertex 33.21008501447562 1.299038105676667 -0.7500000000000029
vertex 33.21008501447562 1.448888739433608 -1.1117714323462216
endloop
endfacet
facet normal 1.0 5.70050965067639e-31 1.9573206923151637e-31
outer loop
vertex 33.21008501447562 1.5529142706151253 2.795554957734411
vertex 33.21008501447562 1.448888739433608 -1.1117714323462216
vertex 33.21008501447562 1.5000000000000084 -1.500000000000005
endloop
endfacet
facet normal 4.929705890807073e-20 -4.455554947823453e-16 1.0
outer loop
vertex 33.21008501447562 0.0 3.0
vertex -33.21008501447564 1.5529142706151253 2.795554957734411
vertex -33.21008501447564 0.0 3.0
endloop
endfacet
facet normal 2.4648529454035366e-20 0.25881904510252035 0.9659258262890684
outer loop
vertex -33.21008501447564 1.5529142706151253 2.795554957734411
vertex 33.21008501447562 0.0 3.0
vertex 33.21008501447562 1.5529142706151253 2.795554957734411
endloop
endfacet
facet normal 3.1697953925776435e-17 -0.2588190451025192 0.9659258262890688
outer loop
vertex 33.21008501447562 0.38822856765378416 -2.948888739433605
vertex -33.21008501447564 0.7500000000000042 -2.7990381056766576
vertex -33.21008501447564 0.38822856765378416 -2.948888739433601
endloop
endfacet
facet normal 2.5965068635351797e-17 -0.49999999999999967 0.8660254037844389
outer loop
vertex -33.21008501447564 0.7500000000000042 -2.7990381056766576
vertex 33.21008501447562 0.38822856765378416 -2.948888739433605
vertex 33.21008501447562 0.7500000000000042 -2.799038105676661
endloop
endfacet
facet normal -2.4966495114852253e-19 -0.5000000000000013 0.866025403784438
outer loop
vertex 33.21008501447562 -3.0 2.196152422706632
vertex -33.21008501447564 -1.5529142706151253 2.7955549577344097
vertex -33.21008501447564 -3.0 2.196152422706632
endloop
endfacet
facet normal -6.722656216741954e-20 -0.2588190451025209 0.9659258262890682
outer loop
vertex -33.21008501447564 -1.5529142706151253 2.7955549577344097
vertex 33.21008501447562 -3.0 2.196152422706632
vertex 33.21008501447562 -1.5529142706151253 2.7955549577344097
endloop
endfacet
facet normal 7.056624555682346e-18 0.9659258262890684 0.2588190451025202
outer loop
vertex -33.21008501447564 5.795554957734415 -1.447085729384872
vertex 33.21008501447562 5.196152422706635 1.4099832412739487e-15
vertex 33.21008501447562 5.795554957734415 -1.4470857293848762
endloop
endfacet
facet normal 7.815649708875449e-18 0.8660254037844377 0.5000000000000018
outer loop
vertex 33.21008501447562 5.196152422706635 1.4099832412739487e-15
vertex -33.21008501447564 5.795554957734415 -1.447085729384872
vertex -33.21008501447564 5.196152422706635 4.229949723821846e-15
endloop
endfacet
facet normal -6.722656216741954e-20 -0.2588190451025209 0.9659258262890682
outer loop
vertex 33.21008501447562 -1.5529142706151253 2.7955549577344097
vertex -33.21008501447564 0.0 3.0
vertex -33.21008501447564 -1.5529142706151253 2.7955549577344097
endloop
endfacet
facet normal 4.929705890807073e-20 -4.455554947823453e-16 1.0
outer loop
vertex -33.21008501447564 0.0 3.0
vertex 33.21008501447562 -1.5529142706151253 2.7955549577344097
vertex 33.21008501447562 0.0 3.0
endloop
endfacet
facet normal 5.776172026775195e-19 -1.0 1.3366664843470368e-16
outer loop
vertex 33.21008501447562 1.5000000000000084 -1.500000000000005
vertex -33.21008501447564 1.448888739433608 -1.888228567653782
vertex 33.21008501447562 1.448888739433608 -1.8882285676537864
endloop
endfacet
facet normal 8.903245101118487e-18 -0.9659258262890668 0.258819045102527
outer loop
vertex -33.21008501447564 1.448888739433608 -1.888228567653782
vertex 33.21008501447562 1.5000000000000084 -1.500000000000005
vertex -33.21008501447564 1.5000000000000084 -1.5000000000000007
endloop
endfacet
facet normal -3.2342226003077697e-18 -4.5526193222638256e-17 -1.0
outer loop
vertex -8.799847533485714 32.84147809382832 -3.0
vertex -1.4604011684121032 28.88910130106541 -3.0
vertex -1.4992553190063316 28.499455132496042 -3.0
endloop
endfacet
facet normal -3.2342226003077697e-18 -4.5526193222638256e-17 -1.0
outer loop
vertex -1.4604011684121032 28.88910130106541 -3.0
vertex -8.799847533485714 32.84147809382832 -3.0
vertex -5.639932965095795e-15 34.0 -3.0
endloop
endfacet
facet normal -3.2342226003077697e-18 -4.5526193222638256e-17 -1.0
outer loop
vertex -1.4604011684121032 28.88910130106541 -3.0
vertex -5.639932965095795e-15 34.0 -3.0
vertex -1.322023091617626 29.25541440424609 -3.0
endloop
endfacet
facet normal -3.2342226003077697e-18 -4.5526193222638256e-17 -1.0
outer loop
vertex -1.322023091617626 29.25541440424609 -3.0
vertex -5.639932965095795e-15 34.0 -3.0
vertex -1.093551325875872 29.573430809417324 -3.0
endloop
endfacet
facet normal -3.2342226003077697e-18 -4.5526193222638256e-17 -1.0
outer loop
vertex -1.093551325875872 29.573430809417324 -3.0
vertex -5.639932965095795e-15 34.0 -3.0
vertex -0.7905558444546827 29.821478224113655 -3.0
endloop
endfacet
facet normal -3.2342226003077697e-18 -4.5526193222638256e-17 -1.0
outer loop
vertex -0.7905558444546827 29.821478224113655 -3.0
vertex -5.639932965095795e-15 34.0 -3.0
vertex -0.43368528868921635 29.98265262694128 -3.0
endloop
endfacet
facet normal -3.2342226003077697e-18 -4.5526193222638256e-17 -1.0
outer loop
vertex -0.43368528868921635 29.98265262694128 -3.0
vertex -5.639932965095795e-15 34.0 -3.0
vertex -0.047259797198403716 30.045970248700776 -3.0
endloop
endfacet
facet normal -3.2342226003077697e-18 -4.5526193222638256e-17 -1.0
outer loop
vertex -0.047259797198403716 30.045970248700776 -3.0
vertex -5.639932965095795e-15 34.0 -3.0
vertex -5.639932965095795e-15 30.04125766732434 -3.0
endloop
endfacet
facet normal -3.2342226003077697e-18 -4.5526193222638256e-17 -1.0
outer loop
vertex -32.84147809382832 8.799847533485702 -3.0
vertex 0.0 6.0 -2.9999999999999996
vertex -33.21008501447562 6.0 -2.9999999999999973
endloop
endfacet
facet normal -3.2342226003077697e-18 -4.5526193222638256e-17 -1.0
outer loop
vertex 0.0 6.0 -2.9999999999999996
vertex -32.84147809382832 8.799847533485702 -3.0
vertex -29.444863728670914 16.999999999999996 -3.0
endloop
endfacet
facet normal -3.2342226003077697e-18 -4.5526193222638256e-17 -1.0
outer loop
vertex 0.0 6.0 -2.9999999999999996
vertex -29.444863728670914 16.999999999999996 -3.0
vertex -24.041630560342618 24.041630560342615 -3.0
endloop
endfacet
facet normal -3.2342226003077697e-18 -4.5526193222638256e-17 -1.0
outer loop
vertex 0.0 6.0 -2.9999999999999996
vertex -24.041630560342618 24.041630560342615 -3.0
vertex -17.00000000000001 29.444863728670903 -3.0
endloop
endfacet
facet normal -3.2342226003077697e-18 -4.5526193222638256e-17 -1.0
outer loop
vertex 0.0 6.0 -2.9999999999999996
vertex -17.00000000000001 29.444863728670903 -3.0
vertex -8.799847533485714 32.84147809382832 -3.0
endloop
endfacet
facet normal -3.2342226003077697e-18 -4.5526193222638256e-17 -1.0
outer loop
vertex 0.0 6.0 -2.9999999999999996
vertex -8.799847533485714 32.84147809382832 -3.0
vertex -1.4992553190063316 28.499455132496042 -3.0
endloop
endfacet
facet normal -3.2342226003077697e-18 -4.5526193222638256e-17 -1.0
outer loop
vertex 0.0 6.0 -2.9999999999999996
vertex -1.4992553190063316 28.499455132496042 -3.0
vertex -1.4359376972468425 28.113029641005234 -3.0
endloop
endfacet
facet normal -3.2342226003077697e-18 -4.5526193222638256e-17 -1.0
outer loop
vertex 0.0 6.0 -2.9999999999999996
vertex -1.4359376972468425 28.113029641005234 -3.0
vertex -1.274763294419228 27.756159085239762 -3.0
endloop
endfacet
facet normal -3.2342226003077697e-18 -4.5526193222638256e-17 -1.0
outer loop
vertex 0.0 6.0 -2.9999999999999996
vertex -1.274763294419228 27.756159085239762 -3.0
vertex -1.0267158797228926 27.453163603818577 -3.0
endloop
endfacet
facet normal -3.2342226003077697e-18 -4.5526193222638256e-17 -1.0
outer loop
vertex 0.0 6.0 -2.9999999999999996
vertex -1.0267158797228926 27.453163603818577 -3.0
vertex -0.7086994745516545 27.22469183807681 -3.0
endloop
endfacet
facet normal -3.2342226003077697e-18 -4.5526193222638256e-17 -1.0
outer loop
vertex 0.0 6.0 -2.9999999999999996
vertex -0.7086994745516545 27.22469183807681 -3.0
vertex -0.3423863713709817 27.086313761282337 -3.0
endloop
endfacet
facet normal -3.2342226003077697e-18 -4.5526193222638256e-17 -1.0
outer loop
vertex 0.0 6.0 -2.9999999999999996
vertex -0.3423863713709817 27.086313761282337 -3.0
vertex -5.639932965095795e-15 27.052172192064535 -3.0
endloop
endfacet
facet normal 8.903245101118487e-18 -0.9659258262890668 0.25881904510252707
outer loop
vertex 33.21008501447562 1.448888739433608 -1.8882285676537864
vertex -33.21008501447564 1.2990381056766616 -2.25
vertex 33.21008501447562 1.2990381056766616 -2.2500000000000044
endloop
endfacet
facet normal 1.6200555571287233e-17 -0.8660254037844366 0.5000000000000036
outer loop
vertex -33.21008501447564 1.2990381056766616 -2.25
vertex 33.21008501447562 1.448888739433608 -1.8882285676537864
vertex -33.21008501447564 1.448888739433608 -1.888228567653782
endloop
endfacet
facet normal -1.0868364180747877e-17 -0.7071067811865483 -0.7071067811865468
outer loop
vertex 33.21008501447562 1.0606601717798296 -0.43933982822018036
vertex -33.21008501447564 1.299038105676667 -0.75
vertex 33.21008501447562 1.299038105676667 -0.7500000000000029
endloop
endfacet
facet normal -9.05199555653982e-18 -0.8660254037844406 -0.49999999999999695
outer loop
vertex -33.21008501447564 1.299038105676667 -0.75
vertex 33.21008501447562 1.0606601717798296 -0.43933982822018036
vertex -33.21008501447564 1.0606601717798296 -0.439339828220179
endloop
endfacet
facet normal 1.984872216191909e-18 -0.7071067811865476 0.7071067811865476
outer loop
vertex 33.21008501447562 -4.2426406871192786 1.2426406871192843
vertex -33.21008501447564 -3.0 2.196152422706632
vertex -33.21008501447564 -4.2426406871192786 1.2426406871192843
endloop
endfacet
facet normal -2.4966495114852253e-19 -0.5000000000000013 0.866025403784438
outer loop
vertex -33.21008501447564 -3.0 2.196152422706632
vertex 33.21008501447562 -4.2426406871192786 1.2426406871192843
vertex 33.21008501447562 -3.0 2.196152422706632
endloop
endfacet
facet normal 1.6200555571287233e-17 -0.8660254037844366 0.5000000000000036
outer loop
vertex 33.21008501447562 1.2990381056766616 -2.2500000000000044
vertex -33.21008501447564 1.0606601717798239 -2.560660171779821
vertex 33.21008501447562 1.0606601717798239 -2.5606601717798245
endloop
endfacet
facet normal 2.091672851939599e-17 -0.7071067811865472 0.7071067811865478
outer loop
vertex -33.21008501447564 1.0606601717798239 -2.560660171779821
vertex 33.21008501447562 1.2990381056766616 -2.2500000000000044
vertex -33.21008501447564 1.2990381056766616 -2.25
endloop
endfacet
facet normal 1.984872216191909e-18 -0.7071067811865476 0.7071067811865476
outer loop
vertex 33.21008501447562 -4.2426406871192786 1.2426406871192843
vertex -33.21008501447564 -5.196152422706629 1.4099832412739487e-15
vertex 33.21008501447562 -5.196152422706629 0.0
endloop
endfacet
facet normal 7.029581700568956e-18 -0.8660254037844386 0.5000000000000003
outer loop
vertex -33.21008501447564 -5.196152422706629 1.4099832412739487e-15
vertex 33.21008501447562 -4.2426406871192786 1.2426406871192843
vertex -33.21008501447564 -4.2426406871192786 1.2426406871192843
endloop
endfacet
facet normal -9.05199555653982e-18 -0.8660254037844406 -0.49999999999999695
outer loop
vertex 33.21008501447562 1.299038105676667 -0.7500000000000029
vertex -33.21008501447564 1.448888739433608 -1.1117714323462193
vertex 33.21008501447562 1.448888739433608 -1.1117714323462216
endloop
endfacet
facet normal -5.505549814485442e-18 -0.9659258262890685 -0.2588190451025199
outer loop
vertex -33.21008501447564 1.448888739433608 -1.1117714323462193
vertex 33.21008501447562 1.299038105676667 -0.7500000000000029
vertex -33.21008501447564 1.299038105676667 -0.75
endloop
endfacet
facet normal -1.0868364180747877e-17 -0.7071067811865483 -0.7071067811865468
outer loop
vertex 33.21008501447562 1.0606601717798296 -0.43933982822018036
vertex -33.21008501447564 0.7500000000000099 -0.20096189432334133
vertex -33.21008501447564 1.0606601717798296 -0.439339828220179
endloop
endfacet
facet normal -1.360721085784545e-17 -0.5000000000000019 -0.8660254037844377
outer loop
vertex -33.21008501447564 0.7500000000000099 -0.20096189432334133
vertex 33.21008501447562 1.0606601717798296 -0.43933982822018036
vertex 33.21008501447562 0.7500000000000099 -0.20096189432334344
endloop
endfacet
facet normal -1.360721085784545e-17 -0.5000000000000019 -0.8660254037844377
outer loop
vertex 33.21008501447562 0.7500000000000099 -0.20096189432334344
vertex -33.21008501447564 0.38822856765378977 -0.05111126056639622
vertex -33.21008501447564 0.7500000000000099 -0.20096189432334133
endloop
endfacet
facet normal -1.6513100967939546e-17 -0.25881904510252224 -0.9659258262890679
outer loop
vertex -33.21008501447564 0.38822856765378977 -0.05111126056639622
vertex 33.21008501447562 0.7500000000000099 -0.20096189432334344
vertex 33.21008501447562 0.38822856765378977 -0.05111126056639834
endloop
endfacet
facet normal -1.6513100967939546e-17 -0.25881904510252224 -0.9659258262890679
outer loop
vertex 33.21008501447562 0.38822856765378977 -0.05111126056639834
vertex -33.21008501447564 1.127986593019159e-14 2.114974861910923e-15
vertex -33.21008501447564 0.38822856765378977 -0.05111126056639622
endloop
endfacet
facet normal -1.7087593044010014e-17 -2.7178885181723055e-15 -1.0
outer loop
vertex -33.21008501447564 1.127986593019159e-14 2.114974861910923e-15
vertex 33.21008501447562 0.38822856765378977 -0.05111126056639834
vertex 33.21008501447562 1.127986593019159e-14 0.0
endloop
endfacet
facet normal -1.7087593044010014e-17 -2.7178885181723055e-15 -1.0
outer loop
vertex 33.21008501447562 1.127986593019159e-14 0.0
vertex -33.21008501447564 -0.3882285676537729 -0.05111126056639481
vertex -33.21008501447564 1.127986593019159e-14 2.114974861910923e-15
endloop
endfacet
facet normal -1.649185169948754e-17 0.25881904510251796 -0.9659258262890692
outer loop
vertex -33.21008501447564 -0.3882285676537729 -0.05111126056639481
vertex 33.21008501447562 1.127986593019159e-14 0.0
vertex 33.21008501447562 -0.3882285676537729 -0.05111126056639692
endloop
endfacet
facet normal -1.649185169948754e-17 0.25881904510251796 -0.9659258262890692
outer loop
vertex 33.21008501447562 -0.3882285676537729 -0.05111126056639692
vertex -33.21008501447564 -0.749999999999993 -0.2009618943233385
vertex -33.21008501447564 -0.3882285676537729 -0.05111126056639481
endloop
endfacet
facet normal -1.3592123721756959e-17 0.49999999999999917 -0.8660254037844393
outer loop
vertex -33.21008501447564 -0.749999999999993 -0.2009618943233385
vertex 33.21008501447562 -0.3882285676537729 -0.05111126056639692
vertex 33.21008501447562 -0.749999999999993 -0.2009618943233406
endloop
endfacet
facet normal -1.3592123721756959e-17 0.49999999999999917 -0.8660254037844393
outer loop
vertex 33.21008501447562 -0.749999999999993 -0.2009618943233406
vertex -33.21008501447564 -1.0606601717798128 -0.43933982822017476
vertex -33.21008501447564 -0.749999999999993 -0.2009618943233385
endloop
endfacet
facet normal -1.003918597817747e-17 0.7071067811865469 -0.7071067811865482
outer loop
vertex -33.21008501447564 -1.0606601717798128 -0.43933982822017476
vertex 33.21008501447562 -0.749999999999993 -0.2009618943233406
vertex 33.21008501447562 -1.0606601717798128 -0.43933982822017614
endloop
endfacet
facet normal -8.275960399051913e-18 0.8660254037844366 -0.5000000000000037
outer loop
vertex -33.21008501447564 -1.2990381056766502 -0.7499999999999951
vertex 33.21008501447562 -1.0606601717798128 -0.43933982822017614
vertex 33.21008501447562 -1.2990381056766502 -0.7499999999999972
endloop
endfacet
facet normal -1.003918597817747e-17 0.7071067811865469 -0.7071067811865482
outer loop
vertex 33.21008501447562 -1.0606601717798128 -0.43933982822017614
vertex -33.21008501447564 -1.2990381056766502 -0.7499999999999951
vertex -33.21008501447564 -1.0606601717798128 -0.43933982822017476
endloop
endfacet
facet normal -5.5781631023546705e-18 0.9659258262890686 -0.25881904510251974
outer loop
vertex -33.21008501447564 -1.4488887394335968 -1.1117714323462131
vertex 33.21008501447562 -1.2990381056766502 -0.7499999999999972
vertex 33.21008501447562 -1.4488887394335968 -1.111771432346216
endloop
endfacet
facet normal -8.275960399051913e-18 0.8660254037844366 -0.5000000000000037
outer loop
vertex 33.21008501447562 -1.2990381056766502 -0.7499999999999972
vertex -33.21008501447564 -1.4488887394335968 -1.1117714323462131
vertex -33.21008501447564 -1.2990381056766502 -0.7499999999999951
endloop
endfacet
facet normal 1.6874210415297405e-19 1.0 3.9208883540846344e-16
outer loop
vertex -33.21008501447564 -1.4999999999999916 -1.4999999999999958
vertex 33.21008501447562 -1.4488887394335968 -1.111771432346216
vertex 33.21008501447562 -1.4999999999999916 -1.4999999999999993
endloop
endfacet
facet normal -5.5781631023546705e-18 0.9659258262890686 -0.25881904510251974
outer loop
vertex 33.21008501447562 -1.4488887394335968 -1.111771432346216
vertex -33.21008501447564 -1.4999999999999916 -1.4999999999999958
vertex -33.21008501447564 -1.4488887394335968 -1.1117714323462131
endloop
endfacet
facet normal 7.90100488306997e-18 0.9659258262890703 0.25881904510251375
outer loop
vertex -33.21008501447564 -1.4488887394335968 -1.8882285676537764
vertex 33.21008501447562 -1.4999999999999916 -1.4999999999999993
vertex 33.21008501447562 -1.4488887394335968 -1.88822856765378
endloop
endfacet
facet normal 1.6874210415297458e-19 1.0 4.1882216509540407e-16
outer loop
vertex 33.21008501447562 -1.4999999999999916 -1.4999999999999993
vertex -33.21008501447564 -1.4488887394335968 -1.8882285676537764
vertex -33.21008501447564 -1.4999999999999916 -1.4999999999999958
endloop
endfacet
facet normal 1.660495737548518e-17 0.8660254037844407 0.4999999999999966
outer loop
vertex -33.21008501447564 -1.299038105676656 -2.2499999999999947
vertex 33.21008501447562 -1.4488887394335968 -1.88822856765378
vertex 33.21008501447562 -1.299038105676656 -2.2499999999999987
endloop
endfacet
facet normal 7.90100488306997e-18 0.9659258262890703 0.25881904510251375
outer loop
vertex 33.21008501447562 -1.4488887394335968 -1.88822856765378
vertex -33.21008501447564 -1.299038105676656 -2.2499999999999947
vertex -33.21008501447564 -1.4488887394335968 -1.8882285676537764
endloop
endfacet
facet normal 2.3196284562121107e-17 0.707106781186549 0.7071067811865461
outer loop
vertex -33.21008501447564 -1.0606601717798183 -2.560660171779817
vertex 33.21008501447562 -1.299038105676656 -2.2499999999999987
vertex 33.21008501447562 -1.0606601717798183 -2.560660171779821
endloop
endfacet
facet normal 1.660495737548518e-17 0.8660254037844407 0.4999999999999966
outer loop
vertex 33.21008501447562 -1.299038105676656 -2.2499999999999987
vertex -33.21008501447564 -1.0606601717798183 -2.560660171779817
vertex -33.21008501447564 -1.299038105676656 -2.2499999999999947
endloop
endfacet
facet normal 2.3196284562121113e-17 0.707106781186549 0.7071067811865461
outer loop
vertex 33.21008501447562 -1.0606601717798183 -2.560660171779821
vertex -33.21008501447564 -0.7499999999999987 -2.7990381056766545
vertex -33.21008501447564 -1.0606601717798183 -2.560660171779817
endloop
endfacet
facet normal 2.5880111546968693e-17 0.5000000000000019 0.8660254037844377
outer loop
vertex -33.21008501447564 -0.7499999999999987 -2.7990381056766545
vertex 33.21008501447562 -1.0606601717798183 -2.560660171779821
vertex 33.21008501447562 -0.7499999999999987 -2.799038105676658
endloop
endfacet
facet normal 2.5880111546968693e-17 0.5000000000000019 0.8660254037844377
outer loop
vertex 33.21008501447562 -0.7499999999999987 -2.799038105676658
vertex -33.21008501447564 -0.3882285676537785 -2.9488887394336
vertex -33.21008501447564 -0.7499999999999987 -2.7990381056766545
endloop
endfacet
facet normal 2.893338751756978e-17 0.25881904510252157 0.9659258262890682
outer loop
vertex -33.21008501447564 -0.3882285676537785 -2.9488887394336
vertex 33.21008501447562 -0.7499999999999987 -2.799038105676658
vertex 33.21008501447562 -0.3882285676537785 -2.9488887394336034
endloop
endfacet
facet normal 2.893338751756978e-17 0.25881904510252157 0.9659258262890682
outer loop
vertex 33.21008501447562 -0.3882285676537785 -2.9488887394336034
vertex -33.21008501447564 5.639932965095795e-15 -2.9999999999999982
vertex -33.21008501447564 -0.3882285676537785 -2.9488887394336
endloop
endfacet
facet normal 3.2770219909140016e-17 1.149533176538451e-15 1.0
outer loop
vertex -33.21008501447564 5.639932965095795e-15 -2.9999999999999982
vertex 33.21008501447562 -0.3882285676537785 -2.9488887394336034
vertex 33.21008501447562 5.639932965095795e-15 -3.000000000000002
endloop
endfacet
facet normal 0.2891235257928117 -0.9572917981645584 4.3393050189851414e-17
outer loop
vertex 0.4336852886892051 27.110777232447596 -3.0
vertex 0.047259797198398075 27.0474596106881 -6.0
vertex 0.4336852886892051 27.110777232447596 -6.0
endloop
endfacet
facet normal 0.0315065314656165 -0.9995035460042181 4.6690406797982463e-17
outer loop
vertex 0.047259797198398075 27.0474596106881 -6.0
vertex 0.4336852886892051 27.110777232447596 -3.0
vertex 0.047259797198398075 27.0474596106881 -3.0
endloop
endfacet
facet normal 0.09922440324910059 0.9950650821930492 -4.715153599707233e-17
outer loop
vertex -5.639932965095795e-15 30.04125766732434 -3.0
vertex 0.34238637137097044 30.007116098106543 -6.0
vertex -5.639932965095795e-15 30.04125766732434 -6.0
endloop
endfacet
facet normal 0.22825758091398568 0.9736007789413971 -4.680588934237659e-17
outer loop
vertex 0.34238637137097044 30.007116098106543 -6.0
vertex -5.639932965095795e-15 30.04125766732434 -3.0
vertex 0.34238637137097044 30.007116098106543 -3.0
endloop
endfacet
facet normal 0.7290342172505752 -0.6844772531485918 2.835307828183254e-17
outer loop
vertex 1.093551325875861 27.519999049971553 -3.0
vertex 0.7905558444546771 27.271951635275222 -6.0
vertex 1.093551325875861 27.519999049971553 -6.0
endloop
endfacet
facet normal 0.5270372296364535 -0.8498421962794811 3.7138528921688006e-17
outer loop
vertex 0.7905558444546771 27.271951635275222 -6.0
vertex 1.093551325875861 27.519999049971553 -3.0
vertex 0.7905558444546771 27.271951635275222 -3.0
endloop
endfacet
facet normal 0.9995035460042186 0.03150653146559939 -6.5930989567890335e-18
outer loop
vertex 1.499255319006326 28.59397472689284 -6.0
vertex 1.4604011684120974 28.204328558323468 -3.0
vertex 1.4604011684120974 28.204328558323468 -6.0
endloop
endfacet
facet normal 0.9736007789413976 -0.22825758091398413 5.715921945260073e-18
outer loop
vertex 1.4604011684120974 28.204328558323468 -3.0
vertex 1.499255319006326 28.59397472689284 -6.0
vertex 1.499255319006326 28.59397472689284 -3.0
endloop
endfacet
facet normal 0.9736007789413976 -0.22825758091398413 5.715921945260073e-18
outer loop
vertex 1.4604011684120974 28.204328558323468 -6.0
vertex 1.3220230916176205 27.83801545514279 -3.0
vertex 1.3220230916176205 27.83801545514279 -6.0
endloop
endfacet
facet normal 0.8813487277450816 -0.47246631636776615 1.763541221274729e-17
outer loop
vertex 1.3220230916176205 27.83801545514279 -3.0
vertex 1.4604011684120974 28.204328558323468 -6.0
vertex 1.4604011684120974 28.204328558323468 -3.0
endloop
endfacet
facet normal 0.8498421962794827 0.5270372296364514 -2.905499458523524e-17
outer loop
vertex 1.2747632944192224 29.337270774149115 -6.0
vertex 1.435937697246837 28.980400218383643 -3.0
vertex 1.435937697246837 28.980400218383643 -6.0
endloop
endfacet
facet normal 0.9572917981645594 0.28912352579280776 -1.8452811060544175e-17
outer loop
vertex 1.435937697246837 28.980400218383643 -3.0
vertex 1.2747632944192224 29.337270774149115 -6.0
vertex 1.2747632944192224 29.337270774149115 -3.0
endloop
endfacet
facet normal 0.4724663163677645 0.8813487277450827 -4.3731627878477134e-17
outer loop
vertex 0.7086994745516488 29.868738021312065 -3.0
vertex 1.0267158797228813 29.6402662555703 -6.0
vertex 0.7086994745516488 29.868738021312065 -6.0
endloop
endfacet
facet normal 0.6844772531485933 0.7290342172505737 -3.767712824459134e-17
outer loop
vertex 1.0267158797228813 29.6402662555703 -6.0
vertex 0.7086994745516488 29.868738021312065 -3.0
vertex 1.0267158797228813 29.6402662555703 -3.0
endloop
endfacet
facet normal 0.9572917981645594 0.28912352579280776 -1.8452811060544175e-17
outer loop
vertex 1.435937697246837 28.980400218383643 -6.0
vertex 1.499255319006326 28.59397472689284 -3.0
vertex 1.499255319006326 28.59397472689284 -6.0
endloop
endfacet
facet normal 0.9995035460042186 0.03150653146559939 -6.5930989567890335e-18
outer loop
vertex 1.499255319006326 28.59397472689284 -3.0
vertex 1.435937697246837 28.980400218383643 -6.0
vertex 1.435937697246837 28.980400218383643 -3.0
endloop
endfacet
facet normal 0.6844772531485933 0.7290342172505737 -3.767712824459134e-17
outer loop
vertex 1.0267158797228813 29.6402662555703 -6.0
vertex 1.2747632944192224 29.337270774149115 -3.0
vertex 1.2747632944192224 29.337270774149115 -6.0
endloop
endfacet
facet normal 0.8498421962794827 0.5270372296364514 -2.905499458523524e-17
outer loop
vertex 1.2747632944192224 29.337270774149115 -3.0
vertex 1.0267158797228813 29.6402662555703 -6.0
vertex 1.0267158797228813 29.6402662555703 -3.0
endloop
endfacet
facet normal -0.03150653146561663 0.9995035460042181 -4.669040679798247e-17
outer loop
vertex -0.047259797198403716 30.045970248700776 -3.0
vertex -5.639932965095795e-15 30.04125766732434 -6.0
vertex -0.047259797198403716 30.045970248700776 -6.0
endloop
endfacet
facet normal 0.0992244032490564 0.9950650821930538 -4.715153599707231e-17
outer loop
vertex -5.639932965095795e-15 30.04125766732434 -6.0
vertex -0.047259797198403716 30.045970248700776 -3.0
vertex -5.639932965095795e-15 30.04125766732434 -3.0
endloop
endfacet
facet normal 0.8813487277450816 -0.47246631636776615 1.763541221274729e-17
outer loop
vertex 1.3220230916176205 27.83801545514279 -6.0
vertex 1.093551325875861 27.519999049971553 -3.0
vertex 1.093551325875861 27.519999049971553 -6.0
endloop
endfacet
facet normal 0.7290342172505752 -0.6844772531485918 2.835307828183254e-17
outer loop
vertex 1.093551325875861 27.519999049971553 -3.0
vertex 1.3220230916176205 27.83801545514279 -6.0
vertex 1.3220230916176205 27.83801545514279 -3.0
endloop
endfacet
facet normal -0.09922440324910034 -0.9950650821930493 4.715153599707233e-17
outer loop
vertex -5.639932965095795e-15 27.052172192064535 -3.0
vertex -0.3423863713709817 27.086313761282337 -6.0
vertex -5.639932965095795e-15 27.052172192064535 -6.0
endloop
endfacet
facet normal -0.2282575809139858 -0.9736007789413973 4.6805889342376605e-17
outer loop
vertex -0.3423863713709817 27.086313761282337 -6.0
vertex -5.639932965095795e-15 27.052172192064535 -3.0
vertex -0.3423863713709817 27.086313761282337 -3.0
endloop
endfacet
facet normal 0.5270372296364535 -0.8498421962794811 3.7138528921688006e-17
outer loop
vertex 0.7905558444546771 27.271951635275222 -3.0
vertex 0.4336852886892051 27.110777232447596 -6.0
vertex 0.7905558444546771 27.271951635275222 -6.0
endloop
endfacet
facet normal 0.2891235257928117 -0.9572917981645584 4.3393050189851414e-17
outer loop
vertex 0.4336852886892051 27.110777232447596 -6.0
vertex 0.7905558444546771 27.271951635275222 -3.0
vertex 0.4336852886892051 27.110777232447596 -3.0
endloop
endfacet
facet normal -0.47246631636776487 -0.8813487277450824 4.373162787847712e-17
outer loop
vertex -0.7086994745516545 27.22469183807681 -3.0
vertex -1.0267158797228926 27.453163603818577 -6.0
vertex -0.7086994745516545 27.22469183807681 -6.0
endloop
endfacet
facet normal -0.6844772531485933 -0.7290342172505735 3.767712824459133e-17
outer loop
vertex -1.0267158797228926 27.453163603818577 -6.0
vertex -0.7086994745516545 27.22469183807681 -3.0
vertex -1.0267158797228926 27.453163603818577 -3.0
endloop
endfacet
facet normal 0.0315065314656165 -0.9995035460042181 4.6690406797982463e-17
outer loop
vertex 0.047259797198398075 27.0474596106881 -3.0
vertex -5.639932965095795e-15 27.052172192064535 -6.0
vertex 0.047259797198398075 27.0474596106881 -6.0
endloop
endfacet
facet normal -0.09922440324905671 -0.9950650821930537 4.7151535997072304e-17
outer loop
vertex -5.639932965095795e-15 27.052172192064535 -6.0
vertex 0.047259797198398075 27.0474596106881 -3.0
vertex -5.639932965095795e-15 27.052172192064535 -3.0
endloop
endfacet
facet normal -0.8498421962794828 -0.5270372296364512 2.905499458523523e-17
outer loop
vertex -1.274763294419228 27.756159085239762 -3.0
vertex -1.0267158797228926 27.453163603818577 -6.0
vertex -1.0267158797228926 27.453163603818577 -3.0
endloop
endfacet
facet normal -0.6844772531485933 -0.7290342172505735 3.767712824459133e-17
outer loop
vertex -1.0267158797228926 27.453163603818577 -6.0
vertex -1.274763294419228 27.756159085239762 -3.0
vertex -1.274763294419228 27.756159085239762 -6.0
endloop
endfacet
facet normal -0.2282575809139858 -0.9736007789413973 4.6805889342376605e-17
outer loop
vertex -0.3423863713709817 27.086313761282337 -3.0
vertex -0.7086994745516545 27.22469183807681 -6.0
vertex -0.3423863713709817 27.086313761282337 -6.0
endloop
endfacet
facet normal -0.47246631636776487 -0.8813487277450824 4.373162787847712e-17
outer loop
vertex -0.7086994745516545 27.22469183807681 -6.0
vertex -0.3423863713709817 27.086313761282337 -3.0
vertex -0.7086994745516545 27.22469183807681 -3.0
endloop
endfacet
facet normal -0.9995035460042186 -0.03150653146559939 6.5930989567890335e-18
outer loop
vertex -1.4992553190063316 28.499455132496042 -3.0
vertex -1.4359376972468425 28.113029641005234 -6.0
vertex -1.4359376972468425 28.113029641005234 -3.0
endloop
endfacet
facet normal -0.9572917981645596 -0.2891235257928074 1.8452811060544156e-17
outer loop
vertex -1.4359376972468425 28.113029641005234 -6.0
vertex -1.4992553190063316 28.499455132496042 -3.0
vertex -1.4992553190063316 28.499455132496042 -6.0
endloop
endfacet
facet normal -0.9572917981645596 -0.2891235257928074 1.8452811060544156e-17
outer loop
vertex -1.4359376972468425 28.113029641005234 -3.0
vertex -1.274763294419228 27.756159085239762 -6.0
vertex -1.274763294419228 27.756159085239762 -3.0
endloop
endfacet
facet normal -0.8498421962794828 -0.5270372296364512 2.905499458523523e-17
outer loop
vertex -1.274763294419228 27.756159085239762 -6.0
vertex -1.4359376972468425 28.113029641005234 -3.0
vertex -1.4359376972468425 28.113029641005234 -6.0
endloop
endfacet
facet normal -0.9736007789413976 0.22825758091398426 -5.715921945260084e-18
outer loop
vertex -1.4604011684121032 28.88910130106541 -3.0
vertex -1.4992553190063316 28.499455132496042 -6.0
vertex -1.4992553190063316 28.499455132496042 -3.0
endloop
endfacet
facet normal -0.9995035460042186 -0.03150653146559939 6.5930989567890335e-18
outer loop
vertex -1.4992553190063316 28.499455132496042 -6.0
vertex -1.4604011684121032 28.88910130106541 -3.0
vertex -1.4604011684121032 28.88910130106541 -6.0
endloop
endfacet
facet normal 0.22825758091398568 0.9736007789413971 -4.680588934237659e-17
outer loop
vertex 0.34238637137097044 30.007116098106543 -3.0
vertex 0.7086994745516488 29.868738021312065 -6.0
vertex 0.34238637137097044 30.007116098106543 -6.0
endloop
endfacet
facet normal 0.4724663163677645 0.8813487277450827 -4.3731627878477134e-17
outer loop
vertex 0.7086994745516488 29.868738021312065 -6.0
vertex 0.34238637137097044 30.007116098106543 -3.0
vertex 0.7086994745516488 29.868738021312065 -3.0
endloop
endfacet
facet normal -0.8813487277450816 0.47246631636776637 -1.7635412212747298e-17
outer loop
vertex -1.322023091617626 29.25541440424609 -3.0
vertex -1.4604011684121032 28.88910130106541 -6.0
vertex -1.4604011684121032 28.88910130106541 -3.0
endloop
endfacet
facet normal -0.9736007789413976 0.22825758091398426 -5.715921945260084e-18
outer loop
vertex -1.4604011684121032 28.88910130106541 -6.0
vertex -1.322023091617626 29.25541440424609 -3.0
vertex -1.322023091617626 29.25541440424609 -6.0
endloop
endfacet
facet normal -0.7290342172505756 0.6844772531485913 -2.835307828183252e-17
outer loop
vertex -1.093551325875872 29.573430809417324 -3.0
vertex -1.322023091617626 29.25541440424609 -6.0
vertex -1.322023091617626 29.25541440424609 -3.0
endloop
endfacet
facet normal -0.8813487277450816 0.47246631636776637 -1.7635412212747298e-17
outer loop
vertex -1.322023091617626 29.25541440424609 -6.0
vertex -1.093551325875872 29.573430809417324 -3.0
vertex -1.093551325875872 29.573430809417324 -6.0
endloop
endfacet
facet normal -0.7290342172505756 0.6844772531485913 -2.835307828183252e-17
outer loop
vertex -1.093551325875872 29.573430809417324 -3.0
vertex -0.7905558444546827 29.821478224113655 -6.0
vertex -1.093551325875872 29.573430809417324 -6.0
endloop
endfacet
facet normal -0.5270372296364539 0.8498421962794809 -3.7138528921687975e-17
outer loop
vertex -0.7905558444546827 29.821478224113655 -6.0
vertex -1.093551325875872 29.573430809417324 -3.0
vertex -0.7905558444546827 29.821478224113655 -3.0
endloop
endfacet
facet normal -0.5270372296364539 0.8498421962794809 -3.7138528921687975e-17
outer loop
vertex -0.7905558444546827 29.821478224113655 -3.0
vertex -0.43368528868921635 29.98265262694128 -6.0
vertex -0.7905558444546827 29.821478224113655 -6.0
endloop
endfacet
facet normal -0.28912352579281153 0.9572917981645583 -4.339305018985141e-17
outer loop
vertex -0.43368528868921635 29.98265262694128 -6.0
vertex -0.7905558444546827 29.821478224113655 -3.0
vertex -0.43368528868921635 29.98265262694128 -3.0
endloop
endfacet
facet normal -0.28912352579281153 0.9572917981645583 -4.339305018985141e-17
outer loop
vertex -0.43368528868921635 29.98265262694128 -3.0
vertex -0.047259797198403716 30.045970248700776 -6.0
vertex -0.43368528868921635 29.98265262694128 -6.0
endloop
endfacet
facet normal -0.03150653146561663 0.9995035460042181 -4.669040679798247e-17
outer loop
vertex -0.047259797198403716 30.045970248700776 -6.0
vertex -0.43368528868921635 29.98265262694128 -3.0
vertex -0.047259797198403716 30.045970248700776 -3.0
endloop
endfacet
facet normal 0.0 0.0 -1.0
outer loop
vertex 0.0 -28.999999999999996 1.9999999999999991
vertex 0.0 -34.0 1.9999999999999991
vertex -4.9999999999999964 -33.34173751206302 1.9999999999999991
endloop
endfacet
facet normal 0.0 0.0 -1.0
outer loop
vertex 0.0 -34.0 1.9999999999999991
vertex 0.0 -28.999999999999996 1.9999999999999991
vertex 5.000000000000002 -33.34173751206302 1.9999999999999991
endloop
endfacet
facet normal 0.8624421958368261 -0.5061555678249067 -2.5738569666431533e-16
outer loop
vertex 0.0 -24.822200726732536 -3.0
vertex -4.9999999999999964 -33.34173751206302 1.9999999999999991
vertex -4.9999999999999964 -33.34173751206302 -3.0
endloop
endfacet
facet normal -0.5545193539102617 -0.6385915228288139 -0.5335814399977967
outer loop
vertex 0.0 -28.999999999999996 1.9999999999999991
vertex 0.0 -24.822200726732536 -3.0
vertex 5.000000000000002 -33.34173751206302 1.9999999999999991
endloop
endfacet
facet normal -0.8624421958368261 -0.5061555678249068 -2.5738569666431533e-16
outer loop
vertex 0.0 -24.822200726732536 -3.0
vertex 5.000000000000002 -33.34173751206302 -3.0
vertex 5.000000000000002 -33.34173751206302 1.9999999999999991
endloop
endfacet
facet normal 0.5545193539102617 -0.6385915228288139 -0.5335814399977967
outer loop
vertex -4.9999999999999964 -33.34173751206302 1.9999999999999991
vertex 0.0 -24.822200726732536 -3.0
vertex 0.0 -28.999999999999996 1.9999999999999991
endloop
endfacet
facet normal -2.1836647921887164e-17 1.6694824708675468e-18 -1.0
outer loop
vertex 34.0 5.639932965095795e-15 -3.0
vertex 33.21008501447562 -5.999999999999995 -3.0000000000000013
vertex 33.21008501447562 5.639932965095795e-15 -3.000000000000002
endloop
endfacet
facet normal -2.1836647921887164e-17 1.6694824708675468e-18 -1.0
outer loop
vertex 33.21008501447562 -5.999999999999995 -3.0000000000000013
vertex 0.0 -24.822200726732536 -3.0
vertex 0.0 -5.999999999999995 -2.9999999999999996
endloop
endfacet
facet normal -2.1836647921887164e-17 1.6694824708675468e-18 -1.0
outer loop
vertex 0.0 -24.822200726732536 -3.0
vertex 33.21008501447562 -5.999999999999995 -3.0000000000000013
vertex 5.000000000000002 -33.34173751206302 -3.0
endloop
endfacet
facet normal -2.1836647921887164e-17 1.6694824708675468e-18 -1.0
outer loop
vertex 5.000000000000002 -33.34173751206302 -3.0
vertex 33.21008501447562 -5.999999999999995 -3.0000000000000013
vertex 8.799847533485735 -32.84147809382832 -3.0
endloop
endfacet
facet normal -2.1836647921887164e-17 1.6694824708675468e-18 -1.0
outer loop
vertex 8.799847533485735 -32.84147809382832 -3.0
vertex 33.21008501447562 -5.999999999999995 -3.0000000000000013
vertex 17.00000000000002 -29.444863728670903 -3.0
endloop
endfacet
facet normal -2.1836647921887164e-17 1.6694824708675468e-18 -1.0
outer loop
vertex 17.00000000000002 -29.444863728670903 -3.0
vertex 33.21008501447562 -5.999999999999995 -3.0000000000000013
vertex 24.041630560342625 -24.041630560342615 -3.0
endloop
endfacet
facet normal -2.1836647921887164e-17 1.6694824708675468e-18 -1.0
outer loop
vertex 24.041630560342625 -24.041630560342615 -3.0
vertex 33.21008501447562 -5.999999999999995 -3.0000000000000013
vertex 29.444863728670928 -16.999999999999975 -3.0
endloop
endfacet
facet normal -2.1836647921887164e-17 1.6694824708675468e-18 -1.0
outer loop
vertex 29.444863728670928 -16.999999999999975 -3.0
vertex 33.21008501447562 -5.999999999999995 -3.0000000000000013
vertex 32.84147809382832 -8.79984753348569 -3.0
endloop
endfacet
facet normal -1.0 -5.229818484595191e-31 -5.960037435044931e-16
outer loop
vertex -33.21008501447564 -1.5529142706151253 2.7955549577344097
vertex -33.21008501447564 -1.4488887394335968 -1.1117714323462131
vertex -33.21008501447564 -1.4999999999999916 -1.4999999999999958
endloop
endfacet
facet normal -1.0 -5.229818484595191e-31 -5.960037435044931e-16
outer loop
vertex -33.21008501447564 -1.4488887394335968 -1.1117714323462131
vertex -33.21008501447564 -1.5529142706151253 2.7955549577344097
vertex -33.21008501447564 0.0 3.0
endloop
endfacet
facet normal -1.0 -5.229818484595191e-31 -5.960037435044931e-16
outer loop
vertex -33.21008501447564 -1.4488887394335968 -1.1117714323462131
vertex -33.21008501447564 0.0 3.0
vertex -33.21008501447564 -1.2990381056766502 -0.7499999999999951
endloop
endfacet
facet normal -1.0 -5.229818484595191e-31 -5.960037435044931e-16
outer loop
vertex -33.21008501447564 -1.2990381056766502 -0.7499999999999951
vertex -33.21008501447564 0.0 3.0
vertex -33.21008501447564 -1.0606601717798128 -0.43933982822017476
endloop
endfacet
facet normal -1.0 -5.229818484595191e-31 -5.960037435044931e-16
outer loop
vertex -33.21008501447564 -1.0606601717798128 -0.43933982822017476
vertex -33.21008501447564 0.0 3.0
vertex -33.21008501447564 -0.749999999999993 -0.2009618943233385
endloop
endfacet
facet normal -1.0 -5.229818484595191e-31 -5.960037435044931e-16
outer loop
vertex -33.21008501447564 -0.749999999999993 -0.2009618943233385
vertex -33.21008501447564 0.0 3.0
vertex -33.21008501447564 -0.3882285676537729 -0.05111126056639481
endloop
endfacet
facet normal -1.0 -5.229818484595191e-31 -5.960037435044931e-16
outer loop
vertex -33.21008501447564 -0.3882285676537729 -0.05111126056639481
vertex -33.21008501447564 0.0 3.0
vertex -33.21008501447564 1.127986593019159e-14 2.114974861910923e-15
endloop
endfacet
facet normal -1.0 -5.229818484595191e-31 -5.960037435044931e-16
outer loop
vertex -33.21008501447564 1.127986593019159e-14 2.114974861910923e-15
vertex -33.21008501447564 0.0 3.0
vertex -33.21008501447564 1.5529142706151253 2.795554957734411
endloop
endfacet
facet normal -1.0 -5.229818484595191e-31 -5.960037435044931e-16
outer loop
vertex -33.21008501447564 1.127986593019159e-14 2.114974861910923e-15
vertex -33.21008501447564 1.5529142706151253 2.795554957734411
vertex -33.21008501447564 0.38822856765378977 -0.05111126056639622
endloop
endfacet
facet normal -1.0 -5.229818484595191e-31 -5.960037435044931e-16
outer loop
vertex -33.21008501447564 0.38822856765378977 -0.05111126056639622
vertex -33.21008501447564 1.5529142706151253 2.795554957734411
vertex -33.21008501447564 0.7500000000000099 -0.20096189432334133
endloop
endfacet
facet normal -1.0 -5.229818484595191e-31 -5.960037435044931e-16
outer loop
vertex -33.21008501447564 0.7500000000000099 -0.20096189432334133
vertex -33.21008501447564 1.5529142706151253 2.795554957734411
vertex -33.21008501447564 1.0606601717798296 -0.439339828220179
endloop
endfacet
facet normal -1.0 -5.229818484595191e-31 -5.960037435044931e-16
outer loop
vertex -33.21008501447564 1.0606601717798296 -0.439339828220179
vertex -33.21008501447564 1.5529142706151253 2.795554957734411
vertex -33.21008501447564 1.299038105676667 -0.75
endloop
endfacet
facet normal -1.0 -5.229818484595191e-31 -5.960037435044931e-16
outer loop
vertex -33.21008501447564 1.299038105676667 -0.75
vertex -33.21008501447564 1.5529142706151253 2.795554957734411
vertex -33.21008501447564 1.448888739433608 -1.1117714323462193
endloop
endfacet
facet normal -1.0 -5.229818484595191e-31 -5.960037435044931e-16
outer loop
vertex -33.21008501447564 1.448888739433608 -1.1117714323462193
vertex -33.21008501447564 1.5529142706151253 2.795554957734411
vertex -33.21008501447564 1.5000000000000084 -1.5000000000000007
endloop
endfacet
facet normal -1.0 -5.229818484595191e-31 -5.960037435044931e-16
outer loop
vertex -33.21008501447564 0.38822856765378416 -2.948888739433601
vertex -33.21008501447562 6.0 -2.9999999999999973
vertex -33.21008501447564 5.639932965095795e-15 -2.9999999999999982
endloop
endfacet
facet normal -1.0 -5.229818484595191e-31 -5.960037435044931e-16
outer loop
vertex -33.21008501447562 6.0 -2.9999999999999973
vertex -33.21008501447564 0.38822856765378416 -2.948888739433601
vertex -33.21008501447564 0.7500000000000042 -2.7990381056766576
endloop
endfacet
facet normal -1.0 -5.229818484595191e-31 -5.960037435044931e-16
outer loop
vertex -33.21008501447562 6.0 -2.9999999999999973
vertex -33.21008501447564 0.7500000000000042 -2.7990381056766576
vertex -33.21008501447564 1.0606601717798239 -2.560660171779821
endloop
endfacet
facet normal -1.0 -5.229818484595191e-31 -5.960037435044931e-16
outer loop
vertex -33.21008501447562 6.0 -2.9999999999999973
vertex -33.21008501447564 1.0606601717798239 -2.560660171779821
vertex -33.21008501447564 1.2990381056766616 -2.25
endloop
endfacet
facet normal -1.0 -5.229818484595191e-31 -5.960037435044931e-16
outer loop
vertex -33.21008501447562 6.0 -2.9999999999999973
vertex -33.21008501447564 1.2990381056766616 -2.25
vertex -33.21008501447564 1.448888739433608 -1.888228567653782
endloop
endfacet
facet normal -1.0 -5.229818484595191e-31 -5.960037435044931e-16
outer loop
vertex -33.21008501447562 6.0 -2.9999999999999973
vertex -33.21008501447564 1.448888739433608 -1.888228567653782
vertex -33.21008501447564 1.5000000000000084 -1.5000000000000007
endloop
endfacet
facet normal -1.0 -5.229818484595191e-31 -5.960037435044931e-16
outer loop
vertex -33.21008501447562 6.0 -2.9999999999999973
vertex -33.21008501447564 1.5000000000000084 -1.5000000000000007
vertex -33.21008501447564 1.5529142706151253 2.795554957734411
endloop
endfacet
facet normal -1.0 -5.229818484595191e-31 -5.960037435044931e-16
outer loop
vertex -33.21008501447562 6.0 -2.9999999999999973
vertex -33.21008501447564 1.5529142706151253 2.795554957734411
vertex -33.21008501447564 3.0 2.1961524227066334
endloop
endfacet
facet normal -1.0 -5.229818484595191e-31 -5.960037435044931e-16
outer loop
vertex -33.21008501447562 6.0 -2.9999999999999973
vertex -33.21008501447564 3.0 2.1961524227066334
vertex -33.21008501447564 4.242640687119285 1.2426406871192872
endloop
endfacet
facet normal -1.0 -5.229818484595191e-31 -5.960037435044931e-16
outer loop
vertex -33.21008501447562 6.0 -2.9999999999999973
vertex -33.21008501447564 4.242640687119285 1.2426406871192872
vertex -33.21008501447564 5.196152422706635 4.229949723821846e-15
endloop
endfacet
facet normal -1.0 -5.229818484595191e-31 -5.960037435044931e-16
outer loop
vertex -33.21008501447562 6.0 -2.9999999999999973
vertex -33.21008501447564 5.196152422706635 4.229949723821846e-15
vertex -33.21008501447564 5.795554957734415 -1.447085729384872
endloop
endfacet
facet normal -1.0 -5.229818484595191e-31 -5.960037435044931e-16
outer loop
vertex -33.21008501447562 -5.999999999999995 -2.9999999999999973
vertex -33.21008501447564 -0.3882285676537785 -2.9488887394336
vertex -33.21008501447564 5.639932965095795e-15 -2.9999999999999982
endloop
endfacet
facet normal -1.0 -5.229818484595191e-31 -5.960037435044931e-16
outer loop
vertex -33.21008501447564 -0.3882285676537785 -2.9488887394336
vertex -33.21008501447562 -5.999999999999995 -2.9999999999999973
vertex -33.21008501447564 -5.795554957734404 -1.4470857293848733
endloop
endfacet
facet normal -1.0 -5.229818484595191e-31 -5.960037435044931e-16
outer loop
vertex -33.21008501447564 -0.3882285676537785 -2.9488887394336
vertex -33.21008501447564 -5.795554957734404 -1.4470857293848733
vertex -33.21008501447564 -0.7499999999999987 -2.7990381056766545
endloop
endfacet
facet normal -1.0 -5.229818484595191e-31 -5.960037435044931e-16
outer loop
vertex -33.21008501447564 -0.7499999999999987 -2.7990381056766545
vertex -33.21008501447564 -5.795554957734404 -1.4470857293848733
vertex -33.21008501447564 -5.196152422706629 1.4099832412739487e-15
endloop
endfacet
facet normal -1.0 -5.229818484595191e-31 -5.960037435044931e-16
outer loop
vertex -33.21008501447564 -0.7499999999999987 -2.7990381056766545
vertex -33.21008501447564 -5.196152422706629 1.4099832412739487e-15
vertex -33.21008501447564 -1.0606601717798183 -2.560660171779817
endloop
endfacet
facet normal -1.0 -5.229818484595191e-31 -5.960037435044931e-16
outer loop
vertex -33.21008501447564 -1.0606601717798183 -2.560660171779817
vertex -33.21008501447564 -5.196152422706629 1.4099832412739487e-15
vertex -33.21008501447564 -4.2426406871192786 1.2426406871192843
endloop
endfacet
facet normal -1.0 -5.229818484595191e-31 -5.960037435044931e-16
outer loop
vertex -33.21008501447564 -1.0606601717798183 -2.560660171779817
vertex -33.21008501447564 -4.2426406871192786 1.2426406871192843
vertex -33.21008501447564 -1.299038105676656 -2.2499999999999947
endloop
endfacet
facet normal -1.0 -5.229818484595191e-31 -5.960037435044931e-16
outer loop
vertex -33.21008501447564 -1.299038105676656 -2.2499999999999947
vertex -33.21008501447564 -4.2426406871192786 1.2426406871192843
vertex -33.21008501447564 -1.4488887394335968 -1.8882285676537764
endloop
endfacet
facet normal -1.0 -5.229818484595191e-31 -5.960037435044931e-16
outer loop
vertex -33.21008501447564 -1.4488887394335968 -1.8882285676537764
vertex -33.21008501447564 -4.2426406871192786 1.2426406871192843
vertex -33.21008501447564 -3.0 2.196152422706632
endloop
endfacet
facet normal -1.0 -5.229818484595191e-31 -5.960037435044931e-16
outer loop
vertex -33.21008501447564 -1.4488887394335968 -1.8882285676537764
vertex -33.21008501447564 -3.0 2.196152422706632
vertex -33.21008501447564 -1.4999999999999916 -1.4999999999999958
endloop
endfacet
facet normal -1.0 -5.229818484595191e-31 -5.960037435044931e-16
outer loop
vertex -33.21008501447564 -1.4999999999999916 -1.4999999999999958
vertex -33.21008501447564 -3.0 2.196152422706632
vertex -33.21008501447564 -1.5529142706151253 2.7955549577344097
endloop
endfacet
facet normal 2.6774715009450753e-15 -1.1749860343948824e-16 -1.0
outer loop
vertex -33.21008501447562 -5.999999999999995 -2.9999999999999973
vertex -34.0 0.0 -3.0
vertex -33.21008501447564 5.639932965095795e-15 -2.9999999999999982
endloop
endfacet
facet normal 2.677471500945074e-15 1.1749860343948832e-16 -1.0
outer loop
vertex -33.21008501447562 6.0 -2.9999999999999973
vertex -33.21008501447564 5.639932965095795e-15 -2.9999999999999982
vertex -34.0 0.0 -3.0
endloop
endfacet
facet normal -6.8739644087780664e-18 4.677333681962469e-17 -1.0
outer loop
vertex 0.0 -5.999999999999995 -2.9999999999999996
vertex -32.84147809382832 -8.799847533485712 -3.0
vertex -33.21008501447562 -5.999999999999995 -2.9999999999999973
endloop
endfacet
facet normal -6.8739644087780664e-18 4.677333681962469e-17 -1.0
outer loop
vertex -32.84147809382832 -8.799847533485712 -3.0
vertex 0.0 -5.999999999999995 -2.9999999999999996
vertex -29.444863728670914 -16.999999999999996 -3.0
endloop
endfacet
facet normal -6.8739644087780664e-18 4.677333681962469e-17 -1.0
outer loop
vertex -29.444863728670914 -16.999999999999996 -3.0
vertex 0.0 -5.999999999999995 -2.9999999999999996
vertex -24.041630560342615 -24.041630560342615 -3.0
endloop
endfacet
facet normal -6.8739644087780664e-18 4.677333681962469e-17 -1.0
outer loop
vertex -24.041630560342615 -24.041630560342615 -3.0
vertex 0.0 -5.999999999999995 -2.9999999999999996
vertex -16.999999999999996 -29.444863728670914 -3.0
endloop
endfacet
facet normal -6.8739644087780664e-18 4.677333681962469e-17 -1.0
outer loop
vertex -16.999999999999996 -29.444863728670914 -3.0
vertex 0.0 -5.999999999999995 -2.9999999999999996
vertex -8.799847533485707 -32.84147809382832 -3.0
endloop
endfacet
facet normal -6.8739644087780664e-18 4.677333681962469e-17 -1.0
outer loop
vertex -8.799847533485707 -32.84147809382832 -3.0
vertex 0.0 -5.999999999999995 -2.9999999999999996
vertex -4.9999999999999964 -33.34173751206302 -3.0
endloop
endfacet
facet normal -6.8739644087780664e-18 4.677333681962469e-17 -1.0
outer loop
vertex -4.9999999999999964 -33.34173751206302 -3.0
vertex 0.0 -5.999999999999995 -2.9999999999999996
vertex 0.0 -24.822200726732536 -3.0
endloop
endfacet
endsolid model
